<svg width="163" height="87" viewBox="0 0 163 87" fill="none" xmlns="http://www.w3.org/2000/svg">
<path d="M71.2737 51.4982C71.039 51.4982 70.8044 51.4022 70.5697 51.2102C70.3457 51.0289 70.1484 50.7249 69.9777 50.2982C69.807 49.8715 69.6897 49.3062 69.6257 48.6022C69.5724 48.1755 69.4657 47.8395 69.3057 47.5942C69.167 47.4022 69.0977 47.1995 69.0977 46.9862C69.0977 46.8262 69.1617 46.6395 69.2897 46.4262C69.3537 46.3302 69.3964 46.2289 69.4177 46.1222C69.4497 46.0155 69.4657 45.8289 69.4657 45.5622L69.4177 43.1942C69.4177 42.8849 69.3217 42.6022 69.1297 42.3462C68.9164 42.0475 68.8097 41.7755 68.8097 41.5302C68.8097 41.3382 68.8524 41.1622 68.9377 41.0022C69.023 40.8422 69.119 40.6875 69.2257 40.5382C69.3324 40.3889 69.4177 40.2449 69.4817 40.1062C69.567 39.9035 69.7164 39.7382 69.9297 39.6102C70.143 39.4822 70.3617 39.4182 70.5857 39.4182C70.7564 39.4182 70.9164 39.4609 71.0657 39.5462C71.215 39.6209 71.4817 39.6582 71.8657 39.6582C72.2604 39.6582 72.735 39.6369 73.2897 39.5942C73.951 39.5409 74.607 39.5142 75.2577 39.5142C75.6737 39.5142 76.063 39.5355 76.4257 39.5782C76.7884 39.6209 77.0977 39.7009 77.3537 39.8182C77.6204 39.9249 77.8177 40.0742 77.9457 40.2662C78.0737 40.4475 78.1377 40.6289 78.1377 40.8102C78.1377 41.0555 78.0417 41.2742 77.8497 41.4662C77.6577 41.6475 77.3857 41.7382 77.0337 41.7382L76.7617 41.7222C76.335 41.6689 75.903 41.6422 75.4657 41.6422C74.5804 41.6422 73.695 41.7115 72.8097 41.8502H72.7937C72.495 41.8715 72.303 41.9195 72.2177 41.9942C72.1324 42.0582 72.0897 42.2449 72.0897 42.5542L72.1057 43.6742H72.1697C72.1697 43.9515 72.1644 44.1915 72.1537 44.3942V44.7622C72.1537 45.0182 72.175 45.1889 72.2177 45.2742C72.2604 45.3489 72.351 45.3862 72.4897 45.3862C72.5964 45.3862 72.719 45.3755 72.8577 45.3542C73.007 45.3329 73.1724 45.3169 73.3537 45.3062L74.1057 45.2422C74.6604 45.1889 75.087 45.1622 75.3857 45.1622C75.7484 45.1622 76.0417 45.2315 76.2657 45.3702C76.6284 45.6262 76.8097 45.9089 76.8097 46.2182C76.8097 46.4849 76.687 46.7302 76.4417 46.9542C76.207 47.1782 75.8657 47.3222 75.4177 47.3862L74.1537 47.5302C73.3644 47.5942 72.831 47.6689 72.5537 47.7542C72.2764 47.8395 72.1377 48.0315 72.1377 48.3302C72.1377 48.5115 72.1697 48.7622 72.2337 49.0822C72.3297 49.6262 72.3777 49.9835 72.3777 50.1542C72.3777 50.5382 72.2657 50.8582 72.0417 51.1142C71.8177 51.3702 71.5617 51.4982 71.2737 51.4982ZM92.5883 51.5142C92.055 51.5142 91.5483 51.3915 91.0683 51.1462C90.5883 50.9009 90.1777 50.5169 89.8363 49.9942C89.3243 49.1835 89.0683 48.1649 89.0683 46.9382C89.0683 46.3622 89.111 45.7755 89.1963 45.1782C89.2817 44.5702 89.3777 43.9729 89.4843 43.3862C89.5803 42.8635 89.6657 42.3622 89.7403 41.8822C89.815 41.3915 89.8523 40.9382 89.8523 40.5222V40.4102C89.8417 40.1115 89.6283 39.9622 89.2123 39.9622C88.679 39.9622 87.975 40.1595 87.1003 40.5542C86.2363 40.9489 85.5377 41.3542 85.0043 41.7702C84.6737 42.0155 84.5083 42.2235 84.5083 42.3942C84.5083 42.4795 84.5563 42.5809 84.6523 42.6982C84.759 42.8049 84.903 42.9382 85.0843 43.0982C85.3723 43.3435 85.751 43.7222 86.2203 44.2342C86.9243 45.0235 87.2763 45.8609 87.2763 46.7462C87.2763 47.7275 86.9083 48.5915 86.1723 49.3382C85.2123 50.3089 84.0603 50.7942 82.7163 50.7942C81.8203 50.7942 81.1003 50.5649 80.5563 50.1062C80.0123 49.6369 79.6177 49.0289 79.3723 48.2822C79.127 47.5355 79.0043 46.7515 79.0043 45.9302C79.0043 45.0449 79.1217 44.1915 79.3563 43.3702C79.591 42.5382 79.911 41.8555 80.3163 41.3222C80.7217 40.7889 81.1697 40.5222 81.6603 40.5222C81.799 40.5222 81.9377 40.5435 82.0763 40.5862H82.0923C82.2097 40.5862 82.4923 40.4155 82.9403 40.0742C83.3457 39.7649 83.863 39.4129 84.4923 39.0182C85.1323 38.6129 85.847 38.2609 86.6363 37.9622C87.4363 37.6529 88.279 37.4982 89.1643 37.4982C89.463 37.4982 89.767 37.5195 90.0763 37.5622C90.8123 37.6902 91.3457 37.9355 91.6763 38.2982C92.0177 38.6502 92.2363 39.0502 92.3323 39.4982C92.439 39.9462 92.4977 40.3729 92.5083 40.7782C92.5297 41.0875 92.5617 41.3435 92.6043 41.5462C92.6577 41.7489 92.759 41.8662 92.9083 41.8982C93.6977 42.0369 94.455 42.3195 95.1803 42.7462C95.9057 43.1729 96.5083 43.7115 96.9883 44.3622C97.4683 45.0022 97.7083 45.7062 97.7083 46.4742C97.7083 46.8262 97.6497 47.1835 97.5323 47.5462C97.095 48.7515 96.407 49.7115 95.4683 50.4262C94.5297 51.1515 93.5697 51.5142 92.5883 51.5142ZM83.0843 47.8182C83.3937 47.8182 83.6763 47.6955 83.9323 47.4502C84.199 47.1942 84.3323 46.9169 84.3323 46.6182C84.3323 46.4902 84.3003 46.3622 84.2363 46.2342C84.119 46.0529 83.8097 45.6955 83.3083 45.1622C82.7003 44.5222 82.295 44.2022 82.0923 44.2022C81.943 44.2022 81.8683 44.6395 81.8683 45.5142C81.8683 46.3782 81.991 46.9809 82.2363 47.3222C82.4923 47.6529 82.775 47.8182 83.0843 47.8182ZM92.8603 48.5702C93.2657 48.5702 93.6763 48.3355 94.0923 47.8662C94.5083 47.3862 94.7163 46.9169 94.7163 46.4582C94.7163 46.2022 94.631 45.9782 94.4603 45.7862C93.8737 45.1569 93.1323 44.6929 92.2363 44.3942C92.0443 45.3755 91.9483 46.1702 91.9483 46.7782C91.9483 47.4395 92.039 47.9035 92.2203 48.1702C92.4017 48.4369 92.615 48.5702 92.8603 48.5702ZM108.404 51.3382C108.052 51.3382 107.732 51.1835 107.444 50.8742C107.199 50.5542 107.028 50.2129 106.932 49.8502C106.847 49.4769 106.788 49.0769 106.756 48.6502C106.724 48.2129 106.655 47.7435 106.548 47.2422C106.41 47.2635 106.266 47.4182 106.116 47.7062C105.988 48.0369 105.626 48.5702 105.028 49.3062C104.026 50.4475 103.018 51.0182 102.004 51.0182C101.13 51.0182 100.399 50.6449 99.8123 49.8982C99.2256 49.1409 98.9323 48.2555 98.9323 47.2422C98.9323 46.6022 99.0709 45.9515 99.3483 45.2902C99.9563 43.8395 101.22 42.7089 103.14 41.8982C103.855 41.6209 104.458 41.4822 104.948 41.4822C105.012 41.4822 105.071 41.4875 105.124 41.4982H105.268C105.407 41.4982 105.514 41.4662 105.588 41.4022C105.663 41.3275 105.722 41.1675 105.764 40.9222C105.818 40.6662 105.876 40.2715 105.94 39.7382C106.004 39.2049 106.106 38.4849 106.244 37.5782C106.33 37.0769 106.495 36.7089 106.74 36.4742C106.996 36.2289 107.279 36.1062 107.588 36.1062C107.866 36.1062 108.132 36.1969 108.388 36.3782C108.815 36.7409 109.076 37.5355 109.172 38.7622C109.247 39.7649 109.284 40.9009 109.284 42.1702V43.0342C109.284 44.1755 109.3 45.3169 109.332 46.4582C109.375 47.5995 109.471 48.6662 109.62 49.6582C109.642 49.7755 109.652 49.8875 109.652 49.9942C109.652 50.4315 109.524 50.7622 109.268 50.9862C109.012 51.2209 108.724 51.3382 108.404 51.3382ZM102.1 48.4102C102.655 48.4102 103.3 47.7382 104.036 46.3942C104.303 45.9035 104.543 45.4129 104.756 44.9222C104.97 44.4209 105.076 44.0475 105.076 43.8022C105.076 43.6529 105.023 43.5782 104.916 43.5782L104.804 43.5942C104.004 43.9142 103.359 44.3035 102.868 44.7622C102.388 45.2209 102.036 45.6955 101.812 46.1862C101.599 46.6769 101.492 47.1089 101.492 47.4822C101.492 47.7595 101.546 47.9835 101.652 48.1542C101.759 48.3249 101.908 48.4102 102.1 48.4102ZM115.531 51.5782C114.838 51.5782 114.384 50.9169 114.171 49.5942C114.022 48.7195 113.942 47.3915 113.931 45.6102C113.931 44.6502 113.899 43.8342 113.835 43.1622C113.782 42.4902 113.622 42.1542 113.355 42.1542C112.8 42.1969 112.32 42.2769 111.915 42.3942C111.584 42.5009 111.291 42.5542 111.035 42.5542C110.822 42.5542 110.635 42.5009 110.475 42.3942C110.315 42.2769 110.166 42.0689 110.027 41.7702C109.931 41.5569 109.883 41.3649 109.883 41.1942C109.883 40.7569 110.15 40.4262 110.683 40.2022C111.206 39.9782 111.883 39.8182 112.715 39.7222C113.547 39.6155 114.448 39.5302 115.419 39.4662C116.902 39.3809 118.272 39.2209 119.531 38.9862C119.648 38.9649 119.766 38.9542 119.883 38.9542C120.246 38.9542 120.539 39.0609 120.763 39.2742C120.998 39.4769 121.115 39.7115 121.115 39.9782C121.115 40.2555 120.971 40.5275 120.683 40.7942C120.406 41.0502 119.936 41.2422 119.275 41.3702C118.486 41.5089 117.862 41.5942 117.403 41.6262C116.955 41.6582 116.646 41.7115 116.475 41.7862C116.304 41.8609 116.219 42.0529 116.219 42.3622C116.219 42.5862 116.246 42.8955 116.299 43.2902C116.406 43.9835 116.486 45.1035 116.539 46.6502C116.56 47.4929 116.592 48.2022 116.635 48.7782C116.678 49.2902 116.699 49.7222 116.699 50.0742C116.699 50.5009 116.646 50.8262 116.539 51.0502C116.432 51.2742 116.23 51.4289 115.931 51.5142C115.792 51.5569 115.659 51.5782 115.531 51.5782ZM122.899 51.2902C122.035 51.2902 121.502 50.9329 121.299 50.2182C121.16 49.7489 121.091 49.2209 121.091 48.6342C121.091 48.1649 121.107 47.6849 121.139 47.1942C121.171 46.7462 121.187 46.3409 121.187 45.9782C121.187 45.5942 121.155 45.2742 121.091 45.0182C120.942 44.4742 120.867 43.9195 120.867 43.3542V42.6182C120.867 42.3302 120.963 42.0795 121.155 41.8662C121.358 41.6529 121.603 41.5462 121.891 41.5462C122.126 41.5462 122.376 41.6422 122.643 41.8342C122.91 42.0155 123.096 42.2609 123.203 42.5702C123.246 42.6982 123.294 42.7622 123.347 42.7622C123.432 42.7622 123.619 42.6502 123.907 42.4262C124.622 41.8822 125.315 41.4929 125.987 41.2582C126.659 41.0235 127.272 40.9062 127.827 40.9062C128.51 40.9062 129.059 41.0502 129.475 41.3382C129.902 41.6155 130.115 41.9569 130.115 42.3622C130.115 42.5115 130.083 42.6662 130.019 42.8262C129.902 43.0929 129.763 43.2742 129.603 43.3702C129.443 43.4662 129.267 43.5142 129.075 43.5142C128.915 43.5142 128.739 43.4982 128.547 43.4662C128.355 43.4235 128.158 43.4022 127.955 43.4022C127.774 43.4022 127.587 43.4342 127.395 43.4982C126.35 43.9142 125.587 44.4422 125.107 45.0822C124.638 45.7222 124.334 46.3995 124.195 47.1142C124.067 47.8182 123.998 48.4849 123.987 49.1142C123.966 49.5302 123.928 49.9035 123.875 50.2342C123.832 50.5649 123.736 50.8209 123.587 51.0022C123.448 51.1942 123.219 51.2902 122.899 51.2902ZM134.347 51.2262C133.557 51.2262 132.907 51.0075 132.395 50.5702C131.883 50.1435 131.499 49.5782 131.243 48.8742C130.997 48.1702 130.875 47.4182 130.875 46.6182C130.875 45.4235 131.136 44.2715 131.659 43.1622C132.192 42.0529 132.971 41.2635 133.995 40.7942C134.315 40.6662 134.587 40.6022 134.811 40.6022C135.067 40.6022 135.275 40.6555 135.435 40.7622C135.605 40.8582 135.76 40.9649 135.899 41.0822C136.08 41.2529 136.267 41.3649 136.459 41.4182C137.333 41.6422 137.995 42.2182 138.443 43.1462C138.891 44.0742 139.131 45.0342 139.163 46.0262C138.949 47.6582 138.379 48.9115 137.451 49.7862C136.448 50.7462 135.413 51.2262 134.347 51.2262ZM134.379 48.2822C134.485 48.2822 134.603 48.2502 134.731 48.1862C135.125 47.9622 135.44 47.6315 135.675 47.1942C135.92 46.7462 136.043 46.2822 136.043 45.8022L136.027 45.4822C135.973 45.0235 135.845 44.6129 135.643 44.2502C135.451 43.8875 135.125 43.4609 134.667 42.9702C134.325 43.2049 134.059 43.6582 133.867 44.3302C133.685 45.0022 133.595 45.6795 133.595 46.3622C133.595 46.8849 133.653 47.3382 133.771 47.7222C133.899 48.0955 134.101 48.2822 134.379 48.2822ZM144.645 52.6022C143.866 52.6022 143.2 52.0209 142.645 50.8582C142.282 50.0795 141.888 48.9009 141.461 47.3222C141.248 46.4689 141.029 45.7435 140.805 45.1462C140.549 44.4422 140.421 43.8769 140.421 43.4502C140.421 43.0235 140.517 42.7142 140.709 42.5222C140.901 42.3302 141.125 42.2342 141.381 42.2342C141.648 42.2342 141.914 42.3249 142.181 42.5062C142.448 42.6875 142.645 42.9275 142.773 43.2262C143.349 44.7089 143.77 45.9302 144.037 46.8902C144.197 47.4342 144.33 47.8609 144.437 48.1702C144.554 48.4689 144.677 48.6182 144.805 48.6182C144.986 48.6182 145.232 48.2182 145.541 47.4182C145.786 46.8102 146.309 45.3382 147.109 43.0022C147.333 42.3942 147.594 41.9569 147.893 41.6902C148.192 41.4129 148.485 41.2742 148.773 41.2742C149.061 41.2742 149.306 41.3915 149.509 41.6262C149.712 41.8502 149.813 42.1542 149.813 42.5382C149.813 42.7195 149.781 42.9169 149.717 43.1302C149.333 44.4849 148.917 45.8182 148.469 47.1302C148.032 48.4315 147.562 49.5569 147.061 50.5062C146.57 51.4662 146.058 52.0902 145.525 52.3782C145.205 52.5275 144.912 52.6022 144.645 52.6022ZM156.421 51.3542H155.973C154.747 51.3542 153.749 51.1142 152.981 50.6342C152.224 50.1542 151.664 49.5302 151.301 48.7622C150.949 47.9835 150.773 47.1515 150.773 46.2662C150.773 45.4769 150.901 44.6875 151.157 43.8982C151.424 43.1089 151.792 42.3942 152.261 41.7542C152.741 41.1035 153.312 40.5862 153.973 40.2022C154.645 39.8075 155.387 39.6102 156.197 39.6102C156.443 39.6102 156.699 39.6315 156.965 39.6742C157.925 39.8449 158.613 40.1969 159.029 40.7302C159.456 41.2529 159.669 41.8342 159.669 42.4742C159.669 43.0929 159.509 43.7009 159.189 44.2982C158.869 44.8955 158.437 45.3915 157.893 45.7862C157.349 46.1809 156.741 46.3782 156.069 46.3782C155.525 46.3782 154.955 46.2129 154.357 45.8822C154.315 45.8609 154.267 45.8342 154.213 45.8022C154.171 45.7702 154.123 45.7435 154.069 45.7222C154.027 45.6902 153.984 45.6742 153.941 45.6742C153.856 45.6742 153.813 45.8395 153.813 46.1702C153.813 46.8209 154.059 47.3595 154.549 47.7862C155.051 48.2129 155.675 48.4262 156.421 48.4262C157.157 48.4262 157.899 48.2129 158.645 47.7862C158.827 47.6902 159.003 47.6049 159.173 47.5302C159.355 47.4555 159.563 47.4182 159.797 47.4182L160.005 47.4342C160.4 47.4769 160.693 47.5942 160.885 47.7862C161.077 47.9675 161.173 48.1862 161.173 48.4422C161.173 48.8262 160.976 49.2475 160.581 49.7062C160.197 50.1649 159.648 50.5542 158.933 50.8742C158.219 51.1942 157.381 51.3542 156.421 51.3542ZM156.037 44.1222C156.101 44.1222 156.187 44.0955 156.293 44.0422C156.613 43.8822 156.848 43.6955 156.997 43.4822C157.147 43.2689 157.221 43.0609 157.221 42.8582C157.221 42.6555 157.157 42.4849 157.029 42.3462C156.901 42.1969 156.715 42.1222 156.469 42.1222C156.107 42.1222 155.712 42.2929 155.285 42.6342C154.869 42.9755 154.661 43.2369 154.661 43.4182C154.661 43.5035 154.72 43.5515 154.837 43.5622C155.2 43.5942 155.488 43.7169 155.701 43.9302C155.819 44.0582 155.931 44.1222 156.037 44.1222Z" fill="black"/>
<path d="M53.4417 57.6222C45.4962 63.0344 34.6291 60.9727 29.2175 53.0282C23.8059 45.0838 25.8659 34.2163 33.8114 28.804C41.7569 23.3917 52.624 25.4535 58.0356 33.398C63.4472 41.3424 61.3862 52.2106 53.4417 57.6222ZM34.52 29.8442C27.1484 34.8656 25.2374 44.9474 30.2587 52.3189C35.2801 59.6905 45.3626 61.6026 52.7331 56.582C60.1037 51.5613 62.0168 41.4781 56.9954 34.1065C51.9741 26.7349 41.8916 24.8229 34.52 29.8442Z" fill="#CDCDCD"/>
<path d="M55.8976 31.5744L55.3728 31.5748C54.8837 31.5749 54.4453 31.5194 54.1108 31.4577C54.1579 31.1195 54.2927 30.5311 54.3988 30.1317L54.5334 29.6245L54.0232 29.7455C53.4381 29.8844 52.9044 29.9224 52.5791 29.9294L52.5702 29.901C52.5022 29.6953 52.4746 28.8619 52.4755 28.3346L52.4768 27.8101L52.0132 28.0569C51.628 28.2623 51.2549 28.4084 50.9594 28.5076C51.0006 28.079 51.065 27.6405 51.067 27.6347L51.144 27.1156L50.6509 27.2925C50.0456 27.5097 49.4877 27.6047 49.1669 27.6447C49.0867 27.1637 49.0326 26.5269 49.0322 26.5197L48.9867 25.997L48.5469 26.2831C48.264 26.4668 47.9859 26.6157 47.7397 26.7324C47.9284 25.7847 47.9993 25.0672 47.9537 24.5972C47.828 23.3115 47.7156 20.3513 47.6981 19.8741C47.7146 19.6934 47.6667 19.3479 47.1499 19.0517C46.8417 18.8746 46.4292 18.7535 45.9865 18.7115C45.3634 18.6514 44.7849 18.7558 44.4395 18.9911C44.2878 19.0944 44.1811 19.2241 44.1269 19.3691C43.9335 19.6403 43.5796 20.2925 43.7141 21.2917C43.7775 21.7571 43.9078 22.2699 44.0457 22.8137C44.2587 23.6528 44.4796 24.5211 44.4293 25.172C44.3985 25.5651 44.2344 26.247 43.9504 27.1561C43.7048 26.9408 43.2638 26.4565 42.9785 26.1213L42.6374 25.7219L42.4466 26.2105C42.2571 26.6967 42.027 27.1055 41.8469 27.3917C41.4913 27.0878 41.1002 26.7075 41.0957 26.7031L40.7199 26.3364L40.5743 26.8407C40.4463 27.2849 40.2817 27.6732 40.1364 27.9687C39.7722 27.7997 39.2329 27.4903 39.0122 27.3601L38.5607 27.0916L38.537 27.6163C38.5167 28.0622 38.4513 28.4639 38.3822 28.781C37.9323 28.6359 37.4105 28.4272 37.4046 28.4252L36.9178 28.2302L36.9759 28.7517C37.0359 29.287 37.0201 29.7703 36.9936 30.1035C36.6604 30.0814 36.0361 29.9755 35.6167 29.8906L35.1029 29.786L35.253 30.2884C35.4056 30.7966 35.4767 31.2688 35.5089 31.5979C35.1856 31.6321 34.5255 31.6256 34.0837 31.607L33.5597 31.5844L33.7877 32.0577C34.0388 32.5783 34.1892 33.0745 34.2691 33.3967C33.922 33.4201 33.3513 33.4127 32.9563 33.3967L32.4323 33.3741L32.6605 33.8457C32.9468 34.44 33.1006 34.9939 33.1711 35.3044C32.8454 35.3792 32.2171 35.4591 31.7893 35.4984L31.2671 35.5466L31.5562 35.9843C31.874 36.464 32.0885 36.9331 32.2122 37.2403C31.9278 37.347 31.2391 37.5011 30.7818 37.5875L30.2662 37.6852L30.5957 38.0939C30.9648 38.5522 31.2235 39.0046 31.375 39.302C31.0526 39.4586 30.477 39.6752 30.1226 39.798L29.627 39.9691L30.0119 40.325C30.3629 40.6486 30.6431 40.9828 30.8386 41.2412C30.4722 41.4038 29.9633 41.5884 29.7484 41.6628L29.2528 41.8338L29.6378 42.1898C30.0738 42.5919 30.4005 43.01 30.5893 43.276C30.1414 43.4731 29.5261 43.6866 29.5186 43.6888L29.023 43.8598L29.4079 44.2157C29.7672 44.5471 30.0509 44.8865 30.2538 45.1579C30.1395 45.2523 29.9477 45.3979 29.6269 45.6164C29.3646 45.7951 29.1444 45.9346 29.1424 45.936L28.6991 46.2169L29.1564 46.4741C29.679 46.7678 30.0964 47.103 30.3418 47.32L30.3296 47.3463C30.2387 47.5432 29.6934 48.1743 29.3354 48.5607L28.9778 48.9453L29.4853 49.0782C29.9078 49.1895 30.28 49.335 30.5654 49.4632C30.2442 49.7495 29.8979 50.0274 29.8935 50.0319L29.4841 50.3603L29.9672 50.5653C30.4784 50.7827 30.8996 51.042 31.1801 51.2335C31.0049 51.5269 30.6479 52.0161 30.3929 52.3444L30.0707 52.7589L30.5885 52.8473C31.0329 52.9227 31.4282 53.0405 31.7261 53.1451C31.6727 53.417 31.4004 54.1186 31.2075 54.5666L31.0001 55.0485L31.5228 55.003C31.9908 54.9633 32.4188 54.9793 32.741 55.0074C32.5827 55.3102 32.2562 55.8177 32.0213 56.1578L31.7233 56.5903L32.2449 56.6491C32.7308 56.7037 33.1607 56.8085 33.4857 56.9067C33.4006 57.2377 33.1999 57.8065 33.05 58.1922L32.8599 58.6818L33.3807 58.6181C33.9763 58.5454 34.511 58.5683 34.8366 58.597L34.8428 58.6259C34.8872 58.8387 34.8216 59.6696 34.7607 60.1926L34.7003 60.7139L35.1884 60.5209C35.5947 60.3597 35.982 60.2564 36.2864 60.1901C36.1977 60.6106 36.0833 61.0396 36.0831 61.0458L35.9485 61.553L36.4587 61.432C37.0005 61.3045 37.4947 61.2635 37.8316 61.2515C37.8635 61.5914 37.8672 62.198 37.8555 62.6126L37.8418 63.1365L38.3103 62.9014C38.8182 62.647 39.3002 62.4912 39.6284 62.4026C39.7475 62.6876 39.9286 63.3609 40.0328 63.8091L40.1518 64.3207L40.5459 63.9742C40.8565 63.7011 41.2181 63.4413 41.5874 63.2212L41.5974 63.2294C41.7639 63.3681 42.2317 64.0592 42.5113 64.5049L42.7891 64.9502L43.0504 64.4947C43.2584 64.1325 43.485 63.8221 43.6718 63.5898L43.6791 63.5938C43.8734 63.6896 44.4874 64.254 44.8625 64.6241L45.2352 64.9929L45.3843 64.4893C45.4615 64.2282 45.5593 63.962 45.6743 63.6991C45.9476 63.792 46.5952 64.137 47.0093 64.3771L47.4638 64.6391L47.4803 64.1148C47.4843 63.9665 47.4952 63.8151 47.5101 63.6609C47.8307 63.8011 48.313 64.0532 48.6461 64.2404L49.1033 64.4976L49.1136 63.973C49.1219 63.5667 49.1694 63.1937 49.2218 62.8985C49.4666 62.9583 50.1758 63.3034 50.6225 63.5407L51.0855 63.7865L51.0841 63.2623C51.0831 62.8159 51.1299 62.409 51.1801 62.1017C51.5654 62.2818 51.9465 62.4844 51.9513 62.4871L52.415 62.7339L52.4135 62.2097C52.4121 61.6526 52.4829 61.1618 52.55 60.8264C52.9481 60.8778 53.5641 61.0134 53.8144 61.0725L54.3242 61.1933L54.1902 60.6859C54.0662 60.2153 54.0092 59.777 53.9836 59.4553C54.3846 59.4823 54.9239 59.556 55.1478 59.5895L55.6665 59.6683L55.4917 59.1737C55.4262 58.9873 55.3665 58.7939 55.316 58.5942L55.4391 58.6274L55.3216 58.1178C55.318 58.1038 55.3151 58.0907 55.3125 58.076C55.7906 58.1104 56.3865 58.1966 56.3934 58.1979L56.9128 58.2732L56.7342 57.7798C56.5587 57.2931 56.461 56.8391 56.4088 56.507C56.5766 56.5023 56.6894 56.5004 56.6911 56.5008L57.2152 56.4948L57.2061 56.4771C57.4183 56.5066 57.5715 56.5312 57.5733 56.5315L58.0921 56.6147L57.921 56.1191C57.7135 55.5193 57.6251 54.9689 57.5877 54.6387C57.8138 54.5477 58.6054 54.4256 59.1118 54.3673L59.6329 54.3064L59.3335 53.8757C58.9455 53.3193 58.701 52.7731 58.5856 52.4826C58.9457 52.3064 59.5367 52.0793 59.7831 51.9895L60.2759 51.8099L59.8844 51.4599C59.4916 51.1078 59.1842 50.7426 58.9884 50.4859L58.9904 50.4845C59.1208 50.3102 59.7892 49.8113 60.221 49.5113L60.6524 49.2129L60.1857 48.9727C59.8839 48.8182 59.5835 48.6327 59.2922 48.423L59.2138 48.3609C59.1549 48.314 59.097 48.2664 59.0387 48.2161C59.3851 48.0132 60.0185 47.7272 60.2595 47.623L60.7417 47.4146L60.3306 47.0885C59.8792 46.7299 59.5322 46.3526 59.3192 46.0971C59.6806 45.7864 60.1412 45.4426 60.1473 45.4385L60.5682 45.1247L60.0938 44.9018C59.8243 44.7748 59.5562 44.6258 59.2939 44.4565C59.476 44.1644 59.8317 43.691 60.0854 43.3741L60.4139 42.9643L59.8985 42.8683C59.4795 42.7907 59.1041 42.6758 58.8156 42.5738C59.13 42.2425 59.5042 41.8931 59.5096 41.8879L59.8927 41.5295L59.3964 41.3604C58.8708 41.1813 58.4311 40.9542 58.1377 40.7835C58.2901 40.4786 58.611 39.9629 58.8407 39.6174L59.1315 39.1808L58.6099 39.131C58.1892 39.0905 57.8088 39.0121 57.5036 38.9319C57.6987 38.6699 58.1438 38.1912 58.4537 37.8796L58.8242 37.5072L58.3216 37.3574C57.7962 37.2007 57.3511 36.9922 57.0583 36.8376C57.1663 36.5315 57.4562 35.9395 57.6634 35.5477L57.9092 35.0848L57.384 35.0869C56.9651 35.0887 56.582 35.0481 56.2854 35.0026C56.304 34.7348 56.4999 33.9937 56.6431 33.5211L56.7946 33.0189L56.2797 33.122C55.8438 33.2089 55.4393 33.2429 55.1154 33.2519L55.1973 32.9801L55.1853 32.9823C55.3226 32.6772 55.5104 32.3032 55.6569 32.0294L55.9044 31.5667L55.8976 31.5744Z" fill="#CBCBCB"/>
<path d="M42.7238 17.1569C42.7238 17.1569 42.106 17.7983 42.2694 19.0118C42.4329 20.2253 43.0973 21.9077 43.0075 23.0731C42.9176 24.2386 41.8439 27.1049 41.8439 27.1049L43.1794 29.0654L44.9937 27.6585C44.9937 27.6585 46.1327 23.963 45.988 22.4907C45.8433 21.0184 45.7198 17.4957 45.7198 17.4957L42.7238 17.1569Z" fill="#433709"/>
<path d="M43.9039 17.2951C43.9308 17.9998 44.266 20.9103 44.3926 22.1953C44.5373 23.6676 43.3983 27.3632 43.3983 27.3632L42.1993 28.0524L42.8688 29.0352L44.6831 27.6283C44.6831 27.6283 45.8221 23.9327 45.6774 22.4604C45.5328 20.9881 45.4092 17.4654 45.4092 17.4654L43.9056 17.2954L43.9039 17.2951Z" fill="#261C02"/>
<path d="M45.7267 17.569C45.6896 17.9529 44.9709 18.1994 44.1226 18.1171C43.2733 18.0355 42.6161 17.6565 42.6525 17.2716C42.6896 16.8877 43.4083 16.6412 44.2566 16.7235C45.1059 16.8052 45.7631 17.1841 45.7267 17.569Z" fill="#FCD3B3"/>
<path d="M42.1407 25.5814C42.1407 25.5814 36.2753 25.6158 31.8198 33.449C27.3652 41.2814 28.0881 47.8556 31.1323 53.5118C34.1754 59.1687 37.6639 61.9222 43.0562 62.321C48.4476 62.7205 57.1878 54.3693 57.1786 48.5917C57.1671 41.1608 55.1529 34.4264 53.057 31.29C50.961 28.1537 48.0404 26.6788 46.5333 26.0851C45.0278 25.4917 43.4124 25.3933 43.4124 25.3933L42.1417 25.5807L42.1407 25.5814Z" fill="#4B5B19"/>
<path d="M39.0295 24.8546C39.0295 24.8546 39.9996 25.8007 40.3379 25.9649L40.6752 26.1297L40.0144 27.4215C40.0144 27.4215 39.1017 26.6014 39.1165 26.5748C39.1314 26.5482 39.0285 24.8553 39.0285 24.8553L39.0295 24.8546Z" fill="#6B7B3E"/>
<path d="M39.0304 24.8547C38.7305 25.8947 38.2438 26.6448 38.2438 26.6448L40.0159 27.4227L39.0311 24.8558L39.0304 24.8547Z" fill="#4B5B19"/>
<path d="M36.9479 25.5769C36.9479 25.5769 38.1121 26.2707 38.4796 26.352L38.847 26.4333L38.5054 27.8437C38.5054 27.8437 37.4269 27.2581 37.4352 27.2284C37.4435 27.1988 36.9489 25.5762 36.9489 25.5762L36.9479 25.5769Z" fill="#6B7B3E"/>
<path d="M36.9488 25.5768C36.8991 26.6579 36.6018 27.5011 36.6018 27.5011L38.5064 27.8436L36.9488 25.5768Z" fill="#4B5B19"/>
<path d="M35.3417 26.6934C35.3417 26.6934 36.601 27.1963 36.9751 27.2191L37.3509 27.2422L37.2346 28.6882C37.2346 28.6882 36.078 28.2788 36.0812 28.2481C36.0843 28.2175 35.3427 26.6927 35.3427 26.6927L35.3417 26.6934Z" fill="#6B7B3E"/>
<path d="M35.3411 26.6935C35.4619 27.7695 35.2987 28.6489 35.2987 28.6489L37.233 28.6891L35.3401 26.6942L35.3411 26.6935Z" fill="#4B5B19"/>
<path d="M30.8711 31.8296C30.8711 31.8296 32.2257 31.8866 32.5869 31.7846L32.949 31.682L33.3194 33.0846C33.3194 33.0846 32.0918 33.082 32.085 33.0522C32.0782 33.0223 30.8728 31.8299 30.8728 31.8299L30.8711 31.8296Z" fill="#6B7B3E"/>
<path d="M30.8707 31.8295C31.341 32.804 31.4795 33.6879 31.4795 33.6879L33.3183 33.0835L30.8718 31.8288L30.8707 31.8295Z" fill="#4B5B19"/>
<path d="M32.0312 29.9888C32.0312 29.9888 33.3859 30.0458 33.747 29.9438L34.1092 29.8411L34.4795 31.2438C34.4795 31.2438 33.252 31.2412 33.2452 31.2114C33.2383 31.1815 32.033 29.9891 32.033 29.9891L32.0312 29.9888Z" fill="#6B7B3E"/>
<path d="M32.0309 29.9887C32.5012 30.9631 32.6396 31.8471 32.6396 31.8471L34.4785 31.2426L32.0319 29.988L32.0309 29.9887Z" fill="#4B5B19"/>
<path d="M33.5566 28.2173C33.5566 28.2173 34.8852 28.4871 35.2586 28.4428L35.632 28.3985L35.7768 29.8422C35.7768 29.8422 34.5645 29.6462 34.5632 29.6157C34.5618 29.5851 33.5584 28.2176 33.5584 28.2176L33.5566 28.2173Z" fill="#6B7B3E"/>
<path d="M33.5559 28.2174C33.8671 29.2537 33.8634 30.149 33.8634 30.149L35.7743 29.842L33.5559 28.2174Z" fill="#4B5B19"/>
<path d="M40.9484 24.235C40.9484 24.235 41.8282 25.2666 42.1493 25.4605L42.4711 25.6554L41.6943 26.8806C41.6943 26.8806 40.8613 25.9792 40.8785 25.954C40.8958 25.9287 40.9487 24.2333 40.9487 24.2333L40.9484 24.235Z" fill="#6B7B3E"/>
<path d="M40.9476 24.2349C40.5539 25.2428 39.9996 25.9444 39.9996 25.9444L41.6924 26.8813L40.9469 24.2339L40.9476 24.2349Z" fill="#4B5B19"/>
<path d="M27.6895 40.3184C27.6895 40.3184 28.9703 39.875 29.2686 39.6478L29.568 39.4198L30.4261 40.5892C30.4261 40.5892 29.2828 41.0364 29.2661 41.0118C29.2493 40.9872 27.6895 40.3184 27.6895 40.3184Z" fill="#6B7B3E"/>
<path d="M27.6895 40.3184C28.4837 41.0526 28.9361 41.8247 28.9361 41.8247L30.4261 40.5892L27.6895 40.3184Z" fill="#4B5B19"/>
<path d="M28.0742 38.3994C28.0742 38.3994 29.3551 37.956 29.6534 37.7288L29.9528 37.5009L30.8108 38.6703C30.8108 38.6703 29.6676 39.1174 29.6508 39.0929C29.6341 39.0683 28.0742 38.3994 28.0742 38.3994Z" fill="#6B7B3E"/>
<path d="M28.0742 38.3994C28.8685 39.1337 29.3209 39.9058 29.3209 39.9058L30.8108 38.6703L28.0742 38.3994Z" fill="#4B5B19"/>
<path d="M28.7081 36.1375C28.7081 36.1375 30.0407 35.8869 30.3687 35.7054L30.6978 35.5233L31.3754 36.8067C31.3754 36.8067 30.1792 37.0813 30.1655 37.0546C30.1529 37.0273 28.707 36.1382 28.707 36.1382L28.7081 36.1375Z" fill="#6B7B3E"/>
<path d="M28.7072 36.1376C29.3863 36.9804 29.7206 37.8104 29.7206 37.8104L31.3745 36.8068L28.7072 36.1376Z" fill="#4B5B19"/>
<path d="M29.7148 33.9917C29.7148 33.9917 31.0649 33.8658 31.4084 33.7158L31.7529 33.5652L32.309 34.9058C32.309 34.9058 31.092 35.0686 31.0814 35.0398C31.0708 35.011 29.7148 33.9917 29.7148 33.9917Z" fill="#6B7B3E"/>
<path d="M29.7142 33.9918C30.3114 34.8948 30.5675 35.7511 30.5675 35.7511L32.3077 34.9048L29.7142 33.9918Z" fill="#4B5B19"/>
<path d="M27.4512 42.4033C27.4512 42.4033 28.732 41.9599 29.0304 41.7327L29.3297 41.5048L30.1878 42.6742C30.1878 42.6742 29.0446 43.1214 29.0278 43.0968C29.0111 43.0722 27.4512 42.4033 27.4512 42.4033Z" fill="#6B7B3E"/>
<path d="M27.4512 42.4033C28.2454 43.1376 28.6978 43.9097 28.6978 43.9097L30.1878 42.6742L27.4512 42.4033Z" fill="#4B5B19"/>
<path d="M27.1327 44.6839C27.1327 44.6839 28.2763 43.9574 28.5145 43.6661L28.7527 43.3749L29.8578 44.3145C29.8578 44.3145 28.8488 45.0138 28.8259 44.9933C28.803 44.9729 27.132 44.6828 27.132 44.6828L27.1327 44.6839Z" fill="#6B7B3E"/>
<path d="M27.1328 44.6841C28.0753 45.2153 28.6943 45.8619 28.6943 45.8619L29.8586 44.3157L27.1338 44.6834L27.1328 44.6841Z" fill="#4B5B19"/>
<path d="M27.3933 47.331C27.3933 47.331 28.3168 46.3388 28.4727 45.9971L28.6302 45.6557L29.9369 46.2855C29.9369 46.2855 29.1373 47.2173 29.1106 47.2024C29.083 47.1882 27.3933 47.331 27.3933 47.331Z" fill="#6B7B3E"/>
<path d="M27.3926 47.3311C28.4388 47.6071 29.2005 48.0755 29.2005 48.0755L29.9362 46.2856L27.3926 47.3311Z" fill="#4B5B19"/>
<path d="M27.9334 48.877C27.9334 48.877 28.9904 48.028 29.1947 47.7133L29.3989 47.3987L30.6005 48.2111C30.6005 48.2111 29.6747 49.0172 29.6505 48.9992C29.6262 48.9812 27.9324 48.8777 27.9324 48.8777L27.9334 48.877Z" fill="#6B7B3E"/>
<path d="M27.9327 48.8772C28.9285 49.3017 29.6138 49.8761 29.6138 49.8761L30.5998 48.2113L27.9316 48.8779L27.9327 48.8772Z" fill="#4B5B19"/>
<path d="M28.5014 51.2029C28.5014 51.2029 29.3333 50.1335 29.4595 49.7791L29.5856 49.4246L30.943 49.9373C30.943 49.9373 30.229 50.9353 30.2 50.9235C30.172 50.9111 28.5007 51.2019 28.5007 51.2019L28.5014 51.2029Z" fill="#6B7B3E"/>
<path d="M28.501 51.2029C29.5677 51.3856 30.3672 51.7862 30.3672 51.7862L30.9424 49.939L28.5 51.2036L28.501 51.2029Z" fill="#4B5B19"/>
<path d="M29.3805 53.4177C29.3805 53.4177 29.9156 52.1725 29.9483 51.7976L29.981 51.4228L31.4236 51.5759C31.4236 51.5759 30.9848 52.7225 30.9545 52.7176C30.9242 52.7127 29.3808 53.416 29.3808 53.416L29.3805 53.4177Z" fill="#6B7B3E"/>
<path d="M29.3813 53.4178C30.46 53.3252 31.3344 53.5098 31.3344 53.5098L31.4234 51.5767L29.3806 53.4168L29.3813 53.4178Z" fill="#4B5B19"/>
<path d="M30.1855 55.1121C30.1855 55.1121 30.954 53.9959 31.0598 53.6358L31.1656 53.2757L32.5505 53.7097C32.5505 53.7097 31.895 54.7473 31.8656 54.7373C31.8363 54.7273 30.1851 55.1138 30.1851 55.1138L30.1855 55.1121Z" fill="#6B7B3E"/>
<path d="M30.1855 55.1123C31.2612 55.2333 32.0822 55.5862 32.0822 55.5862L32.5498 53.7089L30.1855 55.1123Z" fill="#4B5B19"/>
<path d="M31.2803 57.1381C31.2803 57.1381 31.7716 55.8748 31.7909 55.5L31.8102 55.1253L33.2571 55.2275C33.2571 55.2275 32.8584 56.3888 32.8287 56.3849C32.7981 56.3818 31.2803 57.1381 31.2803 57.1381Z" fill="#6B7B3E"/>
<path d="M31.2801 57.1383C32.3542 57.0082 33.2352 57.1628 33.2352 57.1628L33.2568 55.2276L31.2801 57.1383Z" fill="#4B5B19"/>
<path d="M33.06 59.1153C33.06 59.1153 33.2155 57.7686 33.1389 57.4007L33.0623 57.0328L34.489 56.7661C34.489 56.7661 34.397 57.99 34.3668 57.9941C34.3366 57.9982 33.0593 59.1143 33.0593 59.1143L33.06 59.1153Z" fill="#6B7B3E"/>
<path d="M33.0601 59.1151C34.0673 58.7171 34.9576 58.6432 34.9576 58.6432L34.4891 56.7658L33.0601 59.1151Z" fill="#4B5B19"/>
<path d="M34.411 60.0401C34.411 60.0401 34.7594 58.73 34.7367 58.3554L34.7151 57.98L36.1656 57.9222C36.1656 57.9222 35.8982 59.12 35.867 59.1203C35.8367 59.1199 34.411 60.0401 34.411 60.0401Z" fill="#6B7B3E"/>
<path d="M34.4105 60.04C35.4642 59.7918 36.3559 59.8476 36.3559 59.8476L36.1634 57.9218L34.4098 60.039L34.4105 60.04Z" fill="#4B5B19"/>
<path d="M36.2447 61.578C36.2447 61.578 36.282 60.2232 36.1736 59.8635L36.0651 59.5038L37.4627 59.1129C37.4627 59.1129 37.478 60.3402 37.4489 60.3481C37.419 60.3549 36.2454 61.579 36.2454 61.579L36.2447 61.578Z" fill="#6B7B3E"/>
<path d="M36.244 61.5781C37.2115 61.0931 38.0925 60.9416 38.0925 60.9416L37.4614 59.1119L36.244 61.5781Z" fill="#4B5B19"/>
<path d="M56.8813 35.9045C56.8813 35.9045 55.9262 36.8657 55.7579 37.2024L55.5907 37.5384L54.3056 36.8654C54.3056 36.8654 55.1357 35.9608 55.1613 35.9764C55.188 35.9913 56.8813 35.9045 56.8813 35.9045Z" fill="#6B7B3E"/>
<path d="M56.8817 35.9047C55.8444 35.5955 55.0994 35.1008 55.0994 35.1008L54.306 36.8656L56.8827 35.904L56.8817 35.9047Z" fill="#4B5B19"/>
<path d="M56.0102 33.5816C56.0102 33.5816 55.3752 34.7793 55.3128 35.1504L55.2498 35.5204L53.8249 35.2502C53.8249 35.2502 54.3553 34.1433 54.3852 34.1498C54.4152 34.1564 56.0102 33.5816 56.0102 33.5816Z" fill="#6B7B3E"/>
<path d="M56.0094 33.5814C54.9268 33.5868 54.0695 33.3305 54.0695 33.3305L53.8225 35.2497L56.0077 33.5811L56.0094 33.5814Z" fill="#4B5B19"/>
<path d="M54.9368 31.553C54.9368 31.553 54.5453 32.8504 54.5545 33.2252L54.5645 33.601L53.1135 33.6096C53.1135 33.6096 53.4219 32.4214 53.4511 32.4224C53.4814 32.4228 54.9361 31.5519 54.9361 31.5519L54.9368 31.553Z" fill="#6B7B3E"/>
<path d="M54.9364 31.5529C53.8751 31.7657 52.9855 31.68 52.9855 31.68L53.1128 33.6113L54.9364 31.5529Z" fill="#4B5B19"/>
<path d="M54.0726 33.354C54.0726 33.354 53.6811 34.6514 53.6893 35.0269L53.6992 35.4028L52.2483 35.4114C52.2483 35.4114 52.5566 34.2231 52.5859 34.2242C52.6161 34.2246 54.0709 33.3537 54.0709 33.3537L54.0726 33.354Z" fill="#6B7B3E"/>
<path d="M54.0731 33.3542C53.0118 33.567 52.1222 33.4813 52.1222 33.4813L52.2495 35.4126L54.0731 33.3542Z" fill="#4B5B19"/>
<path d="M54.2503 35.1431C54.2503 35.1431 53.8588 36.4405 53.867 36.816L53.877 37.1918L52.426 37.2005C52.426 37.2005 52.7343 36.0122 52.7636 36.0133C52.7939 36.0137 54.2486 35.1428 54.2486 35.1428L54.2503 35.1431Z" fill="#6B7B3E"/>
<path d="M54.2508 35.1432C53.1895 35.356 52.2999 35.2704 52.2999 35.2704L52.4272 37.2016L54.2508 35.1432Z" fill="#4B5B19"/>
<path d="M54.5784 36.709C54.5784 36.709 54.1869 38.0064 54.1951 38.3819L54.2051 38.7577L52.7541 38.7664C52.7541 38.7664 53.0625 37.5781 53.0927 37.5785C53.123 37.5789 54.5777 36.708 54.5777 36.708L54.5784 36.709Z" fill="#6B7B3E"/>
<path d="M54.579 36.7092C53.5176 36.922 52.6281 36.8363 52.6281 36.8363L52.7553 38.7676L54.579 36.7092Z" fill="#4B5B19"/>
<path d="M53.2952 31.5098C53.2952 31.5098 52.9037 32.8072 52.912 33.1827L52.9219 33.5585L51.4709 33.5672C51.4709 33.5672 51.7793 32.3789 51.8096 32.3793C51.8398 32.3797 53.2945 31.5088 53.2945 31.5088L53.2952 31.5098Z" fill="#6B7B3E"/>
<path d="M53.2958 31.5099C52.2344 31.7228 51.3449 31.637 51.3449 31.637L51.4721 33.5683L53.2958 31.5099Z" fill="#4B5B19"/>
<path d="M52.1488 29.9575C52.1488 29.9575 51.7572 31.255 51.7654 31.6305L51.7754 32.0063L50.3244 32.0149C50.3244 32.0149 50.6328 30.8267 50.663 30.827C50.6933 30.8274 52.1481 29.9565 52.1481 29.9565L52.1488 29.9575Z" fill="#6B7B3E"/>
<path d="M52.1493 29.9577C51.088 30.1705 50.1984 30.0848 50.1984 30.0848L50.3257 32.0161L52.1493 29.9577Z" fill="#4B5B19"/>
<path d="M53.947 29.9592C53.947 29.9592 53.3072 31.1542 53.2431 31.5249L53.1784 31.8946L51.7538 31.6181C51.7538 31.6181 52.2889 30.5139 52.3189 30.5205C52.3489 30.5271 53.947 29.9592 53.947 29.9592Z" fill="#6B7B3E"/>
<path d="M53.9465 29.9592C52.8638 29.96 52.0082 29.6996 52.0082 29.6996L51.7533 31.6181L53.9465 29.9592Z" fill="#4B5B19"/>
<path d="M52.6331 28.0697C52.6331 28.0697 52.2864 29.3801 52.3091 29.7548L52.3317 30.1294L50.8817 30.19C50.8817 30.19 51.1472 28.9918 51.1785 28.9915C51.2088 28.9919 52.6331 28.0697 52.6331 28.0697Z" fill="#6B7B3E"/>
<path d="M52.6333 28.0701C51.581 28.3203 50.6882 28.2653 50.6882 28.2653L50.8836 30.1907L52.6333 28.0701Z" fill="#4B5B19"/>
<path d="M50.6407 26.3036C50.6407 26.3036 50.6371 27.6595 50.7541 28.0163L50.8712 28.3732L49.4832 28.798C49.4832 28.798 49.4372 27.572 49.4674 27.5635C49.4966 27.5556 50.6407 26.3036 50.6407 26.3036Z" fill="#6B7B3E"/>
<path d="M50.6409 26.3038C49.6851 26.8124 48.808 26.9852 48.808 26.9852L49.4834 28.7982L50.6409 26.3038Z" fill="#4B5B19"/>
<path d="M49.1965 25.5361C49.1965 25.5361 48.9967 26.8771 49.0612 27.2472L49.1258 27.6173L47.691 27.8369C47.691 27.8369 47.8233 26.6171 47.8536 26.613C47.8838 26.6089 49.1965 25.5361 49.1965 25.5361Z" fill="#6B7B3E"/>
<path d="M49.1965 25.5361C48.1777 25.9015 47.2843 25.9445 47.2843 25.9445L47.6911 27.8369L49.1965 25.5361Z" fill="#4B5B19"/>
<path d="M47.0975 24.4648C47.0975 24.4648 47.2127 25.8146 47.3603 26.1612L47.5082 26.506L46.1634 27.0515C46.1634 27.0515 46.0106 25.8338 46.0393 25.8232C46.0681 25.8126 47.0975 24.4648 47.0975 24.4648Z" fill="#6B7B3E"/>
<path d="M47.0994 24.465C46.1921 25.0559 45.3337 25.3046 45.3337 25.3046L46.1663 27.051L47.1004 24.4643L47.0994 24.465Z" fill="#4B5B19"/>
<path d="M57.7529 52.7701C57.7529 52.7701 56.4066 52.928 56.066 53.0865L55.7254 53.245L55.1381 51.9181C55.1381 51.9181 56.3506 51.7268 56.3623 51.7549C56.3739 51.783 57.7529 52.7701 57.7529 52.7701Z" fill="#6B7B3E"/>
<path d="M57.7535 52.7699C57.1348 51.8815 56.8588 51.0313 56.8588 51.0313L55.1387 51.918L57.7535 52.7699Z" fill="#4B5B19"/>
<path d="M58.3695 50.3409C58.3695 50.3409 57.0955 50.8052 56.8013 51.0385L56.5065 51.2709L55.6289 50.1147C55.6289 50.1147 56.764 49.6491 56.7818 49.673C56.7993 49.6986 58.3699 50.3392 58.3699 50.3392L58.3695 50.3409Z" fill="#6B7B3E"/>
<path d="M58.3705 50.3409C57.564 49.6195 57.0993 48.8557 57.0993 48.8557L55.6305 50.1158L58.3705 50.3409Z" fill="#4B5B19"/>
<path d="M58.7469 47.8298C58.7469 47.8298 57.6324 48.601 57.406 48.9008L57.1796 49.2005L56.0384 48.305C56.0384 48.305 57.0192 47.5664 57.0421 47.5868C57.066 47.6065 58.7469 47.8298 58.7469 47.8298Z" fill="#6B7B3E"/>
<path d="M58.7479 47.8297C57.7848 47.3365 57.1416 46.7138 57.1416 46.7138L56.0394 48.3049L58.7479 47.8297Z" fill="#4B5B19"/>
<path d="M58.8454 45.8584C58.8454 45.8584 57.6013 46.3953 57.32 46.6454L57.0388 46.8955L56.0957 45.793C56.0957 45.793 57.2023 45.2612 57.2208 45.2861C57.2396 45.3093 58.844 45.8608 58.844 45.8608L58.8454 45.8584Z" fill="#6B7B3E"/>
<path d="M58.8463 45.8586C57.9994 45.1857 57.4903 44.4493 57.4903 44.4493L56.097 45.7915L58.8456 45.8576L58.8463 45.8586Z" fill="#4B5B19"/>
<path d="M57.2448 45.3977C57.2448 45.3977 56.0006 45.9346 55.7194 46.1847L55.4392 46.4341L54.4961 45.3315C54.4961 45.3315 55.6027 44.7998 55.6212 44.8247C55.64 44.8479 57.2444 45.3994 57.2444 45.3994L57.2448 45.3977Z" fill="#6B7B3E"/>
<path d="M57.2448 45.3977C56.3971 44.7238 55.8887 43.9883 55.8887 43.9883L54.4954 45.3305L57.2448 45.3977Z" fill="#4B5B19"/>
<path d="M55.9235 43.9848C55.9235 43.9848 54.6794 44.5218 54.3981 44.7719L54.1169 45.022L53.1738 43.9194C53.1738 43.9194 54.2805 43.3877 54.2989 43.4126C54.3177 43.4358 55.9222 43.9873 55.9222 43.9873L55.9235 43.9848Z" fill="#6B7B3E"/>
<path d="M55.9245 43.9851C55.0775 43.3122 54.5684 42.5757 54.5684 42.5757L53.1751 43.9179L55.9238 43.984L55.9245 43.9851Z" fill="#4B5B19"/>
<path d="M57.695 47.1665C57.695 47.1665 56.4508 47.7034 56.1696 47.9535L55.8883 48.2036L54.9453 47.1011C54.9453 47.1011 56.0519 46.5693 56.0704 46.5943C56.0889 46.6192 57.6936 47.1689 57.6936 47.1689L57.695 47.1665Z" fill="#6B7B3E"/>
<path d="M57.6949 47.1664C56.8479 46.4936 56.3398 45.7564 56.3398 45.7564L54.9466 47.0986L57.6952 47.1647L57.6949 47.1664Z" fill="#4B5B19"/>
<path d="M57.1569 49.3186C57.1569 49.3186 55.9127 49.8555 55.6315 50.1056L55.3513 50.355L54.4082 49.2524C54.4082 49.2524 55.5148 48.7207 55.5333 48.7456C55.5521 48.7688 57.1566 49.3203 57.1566 49.3203L57.1569 49.3186Z" fill="#6B7B3E"/>
<path d="M57.1578 49.3188C56.3102 48.6449 55.8027 47.9088 55.8027 47.9088L54.4095 49.2509L57.1588 49.3181L57.1578 49.3188Z" fill="#4B5B19"/>
<path d="M56.8552 51.313C56.8552 51.313 55.611 51.8499 55.3298 52.1L55.0485 52.3501L54.1055 51.2476C54.1055 51.2476 55.2121 50.7158 55.2306 50.7407C55.2494 50.7639 56.8538 51.3154 56.8538 51.3154L56.8552 51.313Z" fill="#6B7B3E"/>
<path d="M56.8551 51.3129C56.0081 50.64 55.5 49.9029 55.5 49.9029L54.1067 51.2451L56.8554 51.3112L56.8551 51.3129Z" fill="#4B5B19"/>
<path d="M58.6649 43.6489C58.6649 43.6489 57.5779 44.4583 57.3626 44.7655L57.1472 45.0728L55.9752 44.2178C55.9752 44.2178 56.9295 43.4447 56.9534 43.4644C56.9766 43.4831 58.6659 43.6482 58.6659 43.6482L58.6649 43.6489Z" fill="#6B7B3E"/>
<path d="M58.6644 43.649C57.6851 43.1894 57.0205 42.5903 57.0205 42.5903L55.9747 44.2179L58.6654 43.6483L58.6644 43.649Z" fill="#4B5B19"/>
<path d="M58.5414 41.5826C58.5414 41.5826 57.6945 42.6411 57.5636 42.9928L57.4326 43.3446L56.0822 42.8137C56.0822 42.8137 56.8104 41.8255 56.8384 41.8379C56.8664 41.8504 58.5414 41.5826 58.5414 41.5826Z" fill="#6B7B3E"/>
<path d="M58.5414 41.5827C57.4774 41.3863 56.6836 40.9743 56.6836 40.9743L56.0839 42.8141L58.5432 41.583L58.5414 41.5827Z" fill="#4B5B19"/>
<path d="M57.9768 40.0184C57.9768 40.0184 56.9865 40.9435 56.8055 41.2724L56.6251 41.6023L55.366 40.8816C55.366 40.8816 56.2285 40.0091 56.2548 40.0256C56.2804 40.0412 57.9768 40.0184 57.9768 40.0184Z" fill="#6B7B3E"/>
<path d="M57.9768 40.0185C56.9515 39.6696 56.2258 39.1482 56.2258 39.1482L55.3661 40.8817L57.9768 40.0185Z" fill="#4B5B19"/>
<path d="M57.2421 37.7418C57.2421 37.7418 56.4909 38.8701 56.3927 39.2326L56.2928 39.5947L54.9016 39.1845C54.9016 39.1845 55.5395 38.1364 55.5681 38.1454C55.5974 38.1554 57.2421 37.7418 57.2421 37.7418Z" fill="#6B7B3E"/>
<path d="M57.2419 37.7417C56.1647 37.6382 55.3376 37.2984 55.3376 37.2984L54.9014 39.1844L57.2419 37.7417Z" fill="#4B5B19"/>
<path d="M56.2599 54.9995C56.2599 54.9995 54.922 54.7841 54.5511 54.8432L54.1803 54.9022L53.9771 53.4653C53.9771 53.4653 55.1961 53.6116 55.1984 53.6415C55.2015 53.6725 56.2603 54.9977 56.2603 54.9977L56.2599 54.9995Z" fill="#6B7B3E"/>
<path d="M56.2597 54.9993C55.9066 53.9765 55.8736 53.0823 55.8736 53.0823L53.9766 53.4668L56.2597 54.9993Z" fill="#4B5B19"/>
<path d="M56.2164 38.0997C56.2164 38.0997 55.1653 38.9552 54.9625 39.2719L54.7596 39.5886L53.5523 38.7832C53.5523 38.7832 54.4728 37.9716 54.4981 37.9889C54.5233 38.0062 56.2164 38.0997 56.2164 38.0997Z" fill="#6B7B3E"/>
<path d="M56.2175 38.1001C55.2186 37.6822 54.5299 37.1116 54.5299 37.1116L53.5544 38.7829L56.2175 38.1001Z" fill="#4B5B19"/>
<path d="M55.6375 35.7778C55.6375 35.7778 54.8117 36.8519 54.688 37.2078L54.5636 37.5625L53.2028 37.0582C53.2028 37.0582 53.9106 36.0554 53.9396 36.0672C53.9679 36.0779 55.6364 35.7785 55.6364 35.7785L55.6375 35.7778Z" fill="#6B7B3E"/>
<path d="M55.6378 35.7778C54.5699 35.6021 53.7677 35.2063 53.7677 35.2063L53.2042 37.0575L55.6378 35.7778Z" fill="#4B5B19"/>
<path d="M55.2963 54.9632C55.2963 54.9632 53.9407 54.9774 53.5856 55.0993L53.2305 55.2211L52.7875 53.8395C52.7875 53.8395 54.013 53.7774 54.0219 53.8059C54.0297 53.835 55.2974 54.9625 55.2974 54.9625L55.2963 54.9632Z" fill="#6B7B3E"/>
<path d="M55.2967 54.9631C54.7751 54.0146 54.5913 53.139 54.5913 53.139L52.7871 53.8384L55.297 54.9614L55.2967 54.9631Z" fill="#4B5B19"/>
<path d="M56.1691 52.6134C56.1691 52.6134 54.8541 52.9405 54.5359 53.1408L54.2177 53.341L53.4679 52.0994C53.4679 52.0994 54.6459 51.7561 54.6606 51.782C54.6753 51.808 56.1691 52.6134 56.1691 52.6134Z" fill="#6B7B3E"/>
<path d="M56.1697 52.6131C55.4428 51.8104 55.0626 51.0011 55.0626 51.0011L53.4685 52.099L56.1697 52.6131Z" fill="#4B5B19"/>
<path d="M56.8089 50.1568C56.8089 50.1568 55.6185 50.8056 55.3622 51.0792L55.105 51.3534L54.0645 50.3413C54.0645 50.3413 55.1175 49.711 55.1383 49.7328C55.1592 49.7546 56.8082 50.1557 56.8082 50.1557L56.8089 50.1568Z" fill="#6B7B3E"/>
<path d="M56.8095 50.1566C55.9046 49.5637 55.3306 48.8775 55.3306 48.8775L54.0658 50.3422L56.8095 50.1566Z" fill="#4B5B19"/>
<path d="M57.1503 48.4262C57.1503 48.4262 55.8567 48.8287 55.5503 49.0464L55.2447 49.2651L54.4238 48.0688C54.4238 48.0688 55.5798 47.658 55.5973 47.6836C55.6147 47.7092 57.1503 48.4262 57.1503 48.4262Z" fill="#6B7B3E"/>
<path d="M57.1504 48.426C56.3796 47.6667 55.9522 46.8806 55.9522 46.8806L54.4239 48.0687L57.1504 48.426Z" fill="#4B5B19"/>
<path d="M57.2059 46.2094C57.2059 46.2094 56.0397 46.9003 55.7925 47.1827L55.5459 47.4662L54.4707 46.4912C54.4707 46.4912 55.5013 45.8237 55.5232 45.8448C55.5451 45.8659 57.2069 46.2087 57.2069 46.2087L57.2059 46.2094Z" fill="#6B7B3E"/>
<path d="M57.2052 46.2094C56.2799 45.6484 55.6824 44.9826 55.6824 44.9826L54.47 46.4912L57.2052 46.2094Z" fill="#4B5B19"/>
<path d="M57.2644 43.9218C57.2644 43.9218 56.31 44.884 56.1435 45.221L55.9762 45.557L54.6898 44.8865C54.6898 44.8865 55.5175 43.9806 55.5441 43.9954C55.5708 44.0103 57.2644 43.9218 57.2644 43.9218Z" fill="#6B7B3E"/>
<path d="M57.2649 43.922C56.2276 43.6129 55.4811 43.1206 55.4811 43.1206L54.6895 44.8856L57.2649 43.922Z" fill="#4B5B19"/>
<path d="M56.8713 42.3077C56.8713 42.3077 55.7878 43.1223 55.5738 43.4316L55.3592 43.7398L54.1834 42.8903C54.1834 42.8903 55.1339 42.1139 55.1581 42.1319C55.1824 42.1499 56.8713 42.3077 56.8713 42.3077Z" fill="#6B7B3E"/>
<path d="M56.8705 42.3075C55.8885 41.8527 55.2216 41.2567 55.2216 41.2567L54.1827 42.8901L56.8695 42.3082L56.8705 42.3075Z" fill="#4B5B19"/>
<path d="M56.3788 39.9644C56.3788 39.9644 55.5135 41.0069 55.3757 41.3573L55.2388 41.7071L53.8985 41.1513C53.8985 41.1513 54.6447 40.1763 54.6717 40.1895C54.6996 40.2019 56.3795 39.9654 56.3795 39.9654L56.3788 39.9644Z" fill="#6B7B3E"/>
<path d="M56.3783 39.9645C55.3171 39.7481 54.5311 39.3233 54.5311 39.3233L53.898 41.1514L56.3783 39.9645Z" fill="#4B5B19"/>
<path d="M53.5783 57.0216C53.5783 57.0216 52.2706 56.6656 51.8955 56.6855L51.5205 56.7055L51.4706 55.2556C51.4706 55.2556 52.6671 55.5298 52.6667 55.5601C52.6664 55.5903 53.5776 57.0206 53.5776 57.0206L53.5783 57.0216Z" fill="#6B7B3E"/>
<path d="M53.5784 57.0214C53.3357 55.9669 53.397 55.0745 53.397 55.0745L51.4707 55.2554L53.5784 57.0214Z" fill="#4B5B19"/>
<path d="M53.6145 35.0495C53.6145 35.0495 52.6677 36.0185 52.5018 36.3565L52.337 36.6938L51.0462 36.0323C51.0462 36.0323 51.868 35.1199 51.8947 35.1348C51.9213 35.1496 53.6138 35.0485 53.6138 35.0485L53.6145 35.0495Z" fill="#6B7B3E"/>
<path d="M53.6144 35.0493C52.5747 34.7478 51.8246 34.261 51.8246 34.261L51.0461 36.0321L53.6144 35.0493Z" fill="#4B5B19"/>
<path d="M52.7711 32.8086C52.7711 32.8086 52.0743 33.9705 51.9912 34.3376L51.9092 34.704L50.5005 34.3583C50.5005 34.3583 51.0903 33.2814 51.1189 33.2904C51.1486 33.2987 52.7718 32.8096 52.7718 32.8096L52.7711 32.8086Z" fill="#6B7B3E"/>
<path d="M52.7719 32.8084C51.6914 32.7552 50.8488 32.4544 50.8488 32.4544L50.4995 34.3578L52.7726 32.8094L52.7719 32.8084Z" fill="#4B5B19"/>
<path d="M54.6286 51.9076C54.6286 51.9076 53.2838 52.0765 52.9442 52.2388L52.6057 52.4004L52.0068 51.0784C52.0068 51.0784 53.2178 50.8762 53.2294 50.9042C53.2411 50.9323 54.6286 51.9076 54.6286 51.9076Z" fill="#6B7B3E"/>
<path d="M54.6284 51.9079C54.0015 51.0251 53.7189 50.1763 53.7189 50.1763L52.0059 51.0776L54.6277 51.9068L54.6284 51.9079Z" fill="#4B5B19"/>
<path d="M55.2249 49.4749C55.2249 49.4749 53.955 49.9498 53.6623 50.1852L53.3695 50.4206L52.4824 49.2725C52.4824 49.2725 53.6133 48.7962 53.6318 48.8211C53.6493 48.8467 55.2249 49.4749 55.2249 49.4749Z" fill="#6B7B3E"/>
<path d="M55.2258 49.475C54.4125 48.7612 53.941 48.0007 53.941 48.0007L52.4834 49.2726L55.2258 49.475Z" fill="#4B5B19"/>
<path d="M55.581 46.96C55.581 46.96 54.4727 47.7404 54.2494 48.0425L54.0261 48.3447L52.8778 47.4585C52.8778 47.4585 53.852 46.7124 53.8752 46.7311C53.8991 46.7508 55.5817 46.961 55.5817 46.961L55.581 46.96Z" fill="#6B7B3E"/>
<path d="M55.5817 46.9598C54.6145 46.4739 53.9666 45.8575 53.9666 45.8575L52.8778 47.4573L55.5817 46.9598Z" fill="#4B5B19"/>
<path d="M55.7228 45.2023C55.7228 45.2023 54.4829 45.7498 54.2041 46.0013L53.9252 46.2527L52.9727 45.1582C52.9727 45.1582 54.0747 44.6176 54.0942 44.6418C54.113 44.665 55.7228 45.2023 55.7228 45.2023Z" fill="#6B7B3E"/>
<path d="M55.7227 45.2023C54.87 44.5364 54.3554 43.8052 54.3554 43.8052L52.9732 45.1593L55.7227 45.2023Z" fill="#4B5B19"/>
<path d="M55.5199 42.9938C55.5199 42.9938 54.4399 43.8135 54.227 44.122L54.0137 44.4323L52.8346 43.5867C52.8346 43.5867 53.7822 42.8061 53.8054 42.8248C53.8287 42.8435 55.5189 42.9945 55.5189 42.9945L55.5199 42.9938Z" fill="#6B7B3E"/>
<path d="M55.5207 42.9938C54.537 42.5431 53.8669 41.9493 53.8669 41.9493L52.8353 43.5867L55.5207 42.9938Z" fill="#4B5B19"/>
<path d="M55.3219 40.7133C55.3219 40.7133 54.4844 41.7789 54.3559 42.132L54.2273 42.4851L52.8729 41.9659C52.8729 41.9659 53.5925 40.9716 53.6204 40.9841C53.6484 40.9965 55.3209 40.714 55.3209 40.714L55.3219 40.7133Z" fill="#6B7B3E"/>
<path d="M55.3221 40.7136C54.2565 40.5257 53.4586 40.121 53.4586 40.121L52.8741 41.9655L55.3221 40.7136Z" fill="#4B5B19"/>
<path d="M54.746 39.1547C54.746 39.1547 53.7631 40.0883 53.5851 40.4196L53.4072 40.7508L52.1416 40.0405C52.1416 40.0405 52.9975 39.1605 53.0231 39.176C53.0487 39.1916 54.745 39.1554 54.745 39.1554L54.746 39.1547Z" fill="#6B7B3E"/>
<path d="M54.7473 39.1548C53.7204 38.8146 52.9892 38.2984 52.9892 38.2984L52.144 40.0399L54.7473 39.1548Z" fill="#4B5B19"/>
<path d="M53.9894 36.8836C53.9894 36.8836 53.2485 38.0185 53.1521 38.3812L53.0556 38.744L51.6604 38.3456C51.6604 38.3456 52.2896 37.2913 52.319 37.3013C52.3476 37.3103 53.9894 36.8836 53.9894 36.8836Z" fill="#6B7B3E"/>
<path d="M53.9886 36.8836C52.9105 36.7898 52.0803 36.4565 52.0803 36.4565L51.6596 38.3455L53.9886 36.8836Z" fill="#4B5B19"/>
<path d="M53.1542 54.1495C53.1542 54.1495 51.815 53.9455 51.4435 54.0081L51.0737 54.0709L50.8585 52.6361C50.8585 52.6361 52.0784 52.7728 52.0818 52.802C52.0859 52.8323 53.1542 54.1495 53.1542 54.1495Z" fill="#6B7B3E"/>
<path d="M53.1542 54.1495C52.7925 53.1295 52.7512 52.2364 52.7512 52.2364L50.8574 52.6367L53.1531 54.1502L53.1542 54.1495Z" fill="#4B5B19"/>
<path d="M52.4622 34.3161C52.4622 34.3161 51.5153 35.2851 51.3495 35.6231L51.1847 35.9604L49.8938 35.2989C49.8938 35.2989 50.7157 34.3865 50.7423 34.4014C50.7689 34.4162 52.4615 34.3151 52.4615 34.3151L52.4622 34.3161Z" fill="#6B7B3E"/>
<path d="M52.462 34.3159C51.4224 34.0143 50.6723 33.5276 50.6723 33.5276L49.8937 35.2987L52.462 34.3159Z" fill="#4B5B19"/>
<path d="M51.6208 32.0762C51.6208 32.0762 50.9239 33.2381 50.8408 33.6052L50.7589 33.9716L49.3501 33.6259C49.3501 33.6259 49.9399 32.549 49.9685 32.558C49.9982 32.5663 51.6215 32.0772 51.6215 32.0772L51.6208 32.0762Z" fill="#6B7B3E"/>
<path d="M51.6215 32.076C50.541 32.0228 49.6985 31.722 49.6985 31.722L49.3491 33.6254L51.6222 32.077L51.6215 32.076Z" fill="#4B5B19"/>
<path d="M53.4762 51.1738C53.4762 51.1738 52.1314 51.3426 51.7919 51.5049L51.4533 51.6665L50.8544 50.3445C50.8544 50.3445 52.0655 50.1423 52.0771 50.1704C52.0887 50.1984 53.4762 51.1738 53.4762 51.1738Z" fill="#6B7B3E"/>
<path d="M53.476 51.174C52.8492 50.2912 52.5666 49.4424 52.5666 49.4424L50.8535 50.3438L53.4753 51.173L53.476 51.174Z" fill="#4B5B19"/>
<path d="M54.0726 48.7405C54.0726 48.7405 52.8027 49.2154 52.5099 49.4508L52.2172 49.6862L51.3301 48.5381C51.3301 48.5381 52.461 48.0618 52.4795 48.0867C52.4969 48.1124 54.0726 48.7405 54.0726 48.7405Z" fill="#6B7B3E"/>
<path d="M54.0735 48.7407C53.2602 48.0269 52.7886 47.2663 52.7886 47.2663L51.331 48.5383L54.0735 48.7407Z" fill="#4B5B19"/>
<path d="M54.4286 46.2266C54.4286 46.2266 53.3204 47.007 53.0971 47.3092L52.8738 47.6113L51.7255 46.7251C51.7255 46.7251 52.6996 45.979 52.7228 45.9977C52.7468 46.0174 54.4293 46.2276 54.4293 46.2276L54.4286 46.2266Z" fill="#6B7B3E"/>
<path d="M54.4293 46.2264C53.4621 45.7405 52.8142 45.1241 52.8142 45.1241L51.7255 46.7239L54.4293 46.2264Z" fill="#4B5B19"/>
<path d="M54.5705 44.4689C54.5705 44.4689 53.3306 45.0164 53.0518 45.2679L52.7729 45.5193L51.8203 44.4248C51.8203 44.4248 52.9224 43.8842 52.9419 43.9084C52.9607 43.9316 54.5705 44.4689 54.5705 44.4689Z" fill="#6B7B3E"/>
<path d="M54.5704 44.4689C53.7177 43.803 53.2031 43.0718 53.2031 43.0718L51.8209 44.4259L54.5704 44.4689Z" fill="#4B5B19"/>
<path d="M54.3695 42.2609C54.3695 42.2609 53.2895 43.0806 53.0766 43.3891L52.8633 43.6994L51.6842 42.8538C51.6842 42.8538 52.6318 42.0732 52.6551 42.0919C52.6793 42.1099 54.3685 42.2616 54.3685 42.2616L54.3695 42.2609Z" fill="#6B7B3E"/>
<path d="M54.3703 42.2609C53.3866 41.8102 52.7165 41.2164 52.7165 41.2164L51.6849 42.8538L54.3703 42.2609Z" fill="#4B5B19"/>
<path d="M53.3017 47.5303C53.3017 47.5303 52.1934 48.3107 51.9701 48.6128L51.7468 48.915L50.5985 48.0288C50.5985 48.0288 51.5727 47.2827 51.5959 47.3014C51.6198 47.3211 53.3024 47.5313 53.3024 47.5313L53.3017 47.5303Z" fill="#6B7B3E"/>
<path d="M53.3024 47.5301C52.3352 47.0442 51.6873 46.4278 51.6873 46.4278L50.5985 48.0276L53.3024 47.5301Z" fill="#4B5B19"/>
<path d="M51.8153 49.1026C51.8153 49.1026 50.7071 49.883 50.4838 50.1851L50.2605 50.4873L49.1122 49.6011C49.1122 49.6011 50.0863 48.855 50.1096 48.8737C50.1335 48.8934 51.816 49.1036 51.816 49.1036L51.8153 49.1026Z" fill="#6B7B3E"/>
<path d="M51.816 49.1024C50.8488 48.6165 50.2009 48.0001 50.2009 48.0001L49.1122 49.5999L51.816 49.1024Z" fill="#4B5B19"/>
<path d="M53.4435 45.7726C53.4435 45.7726 52.2036 46.3201 51.9248 46.5716L51.646 46.823L50.6934 45.7285C50.6934 45.7285 51.7954 45.1879 51.8149 45.2121C51.8337 45.2353 53.4435 45.7726 53.4435 45.7726Z" fill="#6B7B3E"/>
<path d="M53.4434 45.7726C52.5907 45.1067 52.0761 44.3755 52.0761 44.3755L50.6939 45.7296L53.4434 45.7726Z" fill="#4B5B19"/>
<path d="M53.2426 43.5651C53.2426 43.5651 52.1626 44.3848 51.9496 44.6933L51.7364 45.0036L50.5572 44.158C50.5572 44.158 51.5049 43.3774 51.5281 43.3961C51.5513 43.4148 53.2415 43.5658 53.2415 43.5658L53.2426 43.5651Z" fill="#6B7B3E"/>
<path d="M53.2433 43.5651C52.2596 43.1144 51.5896 42.5206 51.5896 42.5206L50.5573 44.157L53.2426 43.5641L53.2433 43.5651Z" fill="#4B5B19"/>
<path d="M54.1683 39.9809C54.1683 39.9809 53.3308 41.0465 53.2023 41.3996L53.0737 41.7527L51.7186 41.2325C51.7186 41.2325 52.4382 40.2382 52.4661 40.2507C52.4941 40.2631 54.1666 39.9806 54.1666 39.9806L54.1683 39.9809Z" fill="#6B7B3E"/>
<path d="M54.1698 39.9811C53.1041 39.7933 52.3063 39.3886 52.3063 39.3886L51.7218 41.2331L54.1698 39.9811Z" fill="#4B5B19"/>
<path d="M53.5946 38.4225C53.5946 38.4225 52.6116 39.3561 52.4347 39.6867L52.2568 40.0179L50.9912 39.3076C50.9912 39.3076 51.8471 38.4276 51.8727 38.4431C51.8983 38.4587 53.5946 38.4225 53.5946 38.4225Z" fill="#6B7B3E"/>
<path d="M53.595 38.4224C52.568 38.0822 51.8368 37.566 51.8368 37.566L50.9916 39.3075L53.595 38.4224Z" fill="#4B5B19"/>
<path d="M52.839 36.1517C52.839 36.1517 52.0981 37.2865 52.0017 37.6493L51.9052 38.0121L50.5101 37.6136C50.5101 37.6136 51.1392 36.5594 51.1686 36.5694C51.1972 36.5784 52.839 36.1517 52.839 36.1517Z" fill="#6B7B3E"/>
<path d="M52.8382 36.1517C51.7601 36.0579 50.9299 35.7246 50.9299 35.7246L50.5092 37.6136L52.8382 36.1517Z" fill="#4B5B19"/>
<path d="M52.0038 53.4171C52.0038 53.4171 50.6646 53.2131 50.2931 53.2756L49.9233 53.3385L49.7081 51.9037C49.7081 51.9037 50.928 52.0404 50.9314 52.0696C50.9355 52.0999 52.0038 53.4171 52.0038 53.4171Z" fill="#6B7B3E"/>
<path d="M52.0047 53.4172C51.643 52.3973 51.6028 51.5035 51.6028 51.5035L49.709 51.9038L52.0047 53.4172Z" fill="#4B5B19"/>
<path d="M40.9863 63.3467C40.9863 63.3467 40.268 62.1975 39.9798 61.9573L39.6906 61.7177L40.6396 60.6196C40.6396 60.6196 41.3306 61.6342 41.3106 61.6554C41.2895 61.6773 40.988 63.347 40.988 63.347L40.9863 63.3467Z" fill="#6B7B3E"/>
<path d="M40.9872 63.3466C41.5257 62.4081 42.1765 61.7953 42.1765 61.7953L40.6394 60.6203L40.9868 63.3483L40.9872 63.3466Z" fill="#4B5B19"/>
<path d="M43.357 63.4115C43.357 63.4115 42.3928 62.4585 42.0558 62.2919L41.7188 62.1254L42.3886 60.8379C42.3886 60.8379 43.2956 61.6649 43.2807 61.6916C43.2659 61.7182 43.357 63.4115 43.357 63.4115Z" fill="#6B7B3E"/>
<path d="M43.3579 63.4116C43.6653 62.374 44.1569 61.6266 44.1569 61.6266L42.3905 60.8373L43.3589 63.4109L43.3579 63.4116Z" fill="#4B5B19"/>
<path d="M45.5007 63.1068C45.5007 63.1068 44.3273 62.4282 43.9589 62.3521L43.5915 62.2753L43.9134 60.8602C43.9134 60.8602 45.0001 61.4313 44.9918 61.461C44.9835 61.4906 45.5 63.1057 45.5 63.1057L45.5007 63.1068Z" fill="#6B7B3E"/>
<path d="M45.5017 63.1066C45.5363 62.0253 45.8236 61.1784 45.8236 61.1784L43.9141 60.8618L45.5007 63.1073L45.5017 63.1066Z" fill="#4B5B19"/>
<path d="M47.1822 62.965C47.1822 62.965 46.0007 62.301 45.6317 62.2283L45.2626 62.1557L45.5683 60.7366C45.5683 60.7366 46.661 61.2946 46.6544 61.3246C46.6472 61.3535 47.1815 62.964 47.1815 62.964L47.1822 62.965Z" fill="#6B7B3E"/>
<path d="M47.1816 62.9652C47.2038 61.8833 47.4812 61.0327 47.4812 61.0327L45.5684 60.7378L47.1816 62.9652Z" fill="#4B5B19"/>
<path d="M50.5785 61.1576C50.5785 61.1576 49.3818 60.5219 49.0111 60.4579L48.6411 60.3948L48.913 58.9703C48.913 58.9703 50.0186 59.503 50.012 59.533C50.0054 59.563 50.5782 61.1593 50.5782 61.1593L50.5785 61.1576Z" fill="#6B7B3E"/>
<path d="M50.5792 61.1578C50.5756 60.0755 50.8336 59.2186 50.8336 59.2186L48.9141 58.9688L50.5792 61.1578Z" fill="#4B5B19"/>
<path d="M49.2093 62.2421C49.2093 62.2421 48.0127 61.6064 47.642 61.5423L47.2719 61.4793L47.5449 60.0541C47.5449 60.0541 48.6505 60.5868 48.6439 60.6168C48.6373 60.6468 49.21 62.2431 49.21 62.2431L49.2093 62.2421Z" fill="#6B7B3E"/>
<path d="M49.2101 62.2422C49.2065 61.1599 49.4645 60.303 49.4645 60.303L47.5449 60.0532L49.2101 62.2422Z" fill="#4B5B19"/>
<path d="M52.4179 59.6735C52.4179 59.6735 51.0993 59.361 50.7247 59.3926L50.3509 59.4252L50.2542 57.9772C50.2542 57.9772 51.4589 58.2128 51.4603 58.2434C51.4616 58.2739 52.4186 59.6745 52.4186 59.6745L52.4179 59.6735Z" fill="#6B7B3E"/>
<path d="M52.4176 59.6734C52.1413 58.6268 52.1734 57.7333 52.1734 57.7333L50.2539 57.9771L52.4176 59.6734Z" fill="#4B5B19"/>
<path d="M53.7636 58.1427C53.7636 58.1427 52.4244 57.9387 52.0528 58.0012L51.6831 58.0641L51.4679 56.6293C51.4679 56.6293 52.6878 56.766 52.6912 56.7952C52.6953 56.8254 53.7636 58.1427 53.7636 58.1427Z" fill="#6B7B3E"/>
<path d="M53.7645 58.1428C53.4028 57.1229 53.3626 56.2291 53.3626 56.2291L51.4688 56.6294L53.7645 58.1428Z" fill="#4B5B19"/>
<path d="M55.0436 56.712C55.0436 56.712 53.702 56.5156 53.3326 56.5812L52.9625 56.6458L52.7391 55.2121C52.7391 55.2121 53.9596 55.3409 53.9637 55.3711C53.9678 55.4013 55.0446 56.7113 55.0446 56.7113L55.0436 56.712Z" fill="#6B7B3E"/>
<path d="M55.0428 56.7119C54.6753 55.6944 54.6289 54.8003 54.6289 54.8003L52.7383 55.2119L55.0428 56.7119Z" fill="#4B5B19"/>
<path d="M38.4772 62.7286C38.4772 62.7286 38.1707 61.4086 37.9745 61.0876L37.7783 60.7666L39.0309 60.0349C39.0309 60.0349 39.357 61.2186 39.3293 61.2329C39.3026 61.2466 38.4755 62.7283 38.4755 62.7283L38.4772 62.7286Z" fill="#6B7B3E"/>
<path d="M38.4763 62.7288C39.2898 62.0156 40.1043 61.6454 40.1043 61.6454L39.031 60.0344L38.4766 62.7271L38.4763 62.7288Z" fill="#4B5B19"/>
<path d="M43.3672 22.3198L44.7181 22.6269L44.7339 22.0025L43.3672 22.3198Z" fill="#261C02"/>
<path d="M42.8523 19.3331C42.8523 19.3331 43.4816 19.6425 44.1215 19.6282C44.7622 19.6149 44.7087 19.3558 44.7087 19.3558L44.629 18.9195C44.629 18.9195 44.361 19.189 43.9629 19.2697C43.5637 19.3511 42.8516 19.332 42.8516 19.332L42.8523 19.3331Z" fill="#261C02"/>
<path d="M43.3425 21.5621C43.3425 21.5621 43.9719 21.8715 44.6118 21.8572C45.2524 21.8439 45.1989 21.5848 45.1989 21.5848L45.1192 21.1485C45.1192 21.1485 44.8513 21.418 44.4531 21.4987C44.0539 21.5801 43.3418 21.561 43.3418 21.561L43.3425 21.5621Z" fill="#261C02"/>
<path d="M48.932 60.7689C48.932 60.7689 47.7353 60.1333 47.3646 60.0692L46.9946 60.0062L47.2665 58.5816C47.2665 58.5816 48.3721 59.1144 48.3655 59.1444C48.3589 59.1743 48.9317 60.7707 48.9317 60.7707L48.932 60.7689Z" fill="#6B7B3E"/>
<path d="M48.9327 60.7691C48.9291 59.6868 49.1871 58.8299 49.1871 58.8299L47.2676 58.5801L48.9327 60.7691Z" fill="#4B5B19"/>
<path d="M47.432 61.4608C47.432 61.4608 46.2353 60.8251 45.8646 60.7611L45.4946 60.6981L45.7665 59.2735C45.7665 59.2735 46.8721 59.8063 46.8655 59.8363C46.8589 59.8662 47.4317 61.4625 47.4317 61.4625L47.432 61.4608Z" fill="#6B7B3E"/>
<path d="M47.4327 61.461C47.4292 60.3787 47.6872 59.5218 47.6872 59.5218L45.7676 59.272L47.432 61.46L47.4327 61.461Z" fill="#4B5B19"/>
<path d="M45.6918 61.8012C45.6918 61.8012 44.4951 61.1655 44.1244 61.1014L43.7544 61.0384L44.0263 59.6139C44.0263 59.6139 45.1318 60.1466 45.1253 60.1766C45.1187 60.2066 45.6914 61.8029 45.6914 61.8029L45.6918 61.8012Z" fill="#6B7B3E"/>
<path d="M45.6925 61.8013C45.6889 60.719 45.9469 59.8621 45.9469 59.8621L44.0273 59.6123L45.6925 61.8013Z" fill="#4B5B19"/>
<path d="M43.9945 62.0092C43.9945 62.0092 42.7978 61.3735 42.4271 61.3094L42.0571 61.2464L42.329 59.8219C42.329 59.8219 43.4346 60.3546 43.428 60.3846C43.4214 60.4146 43.9942 62.0109 43.9942 62.0109L43.9945 62.0092Z" fill="#6B7B3E"/>
<path d="M43.9952 62.0093C43.9916 60.927 44.2496 60.0701 44.2496 60.0701L42.3301 59.8203L43.9952 62.0093Z" fill="#4B5B19"/>
<path d="M41.8504 62.0126C41.8504 62.0126 41.1543 60.8498 40.8699 60.604L40.5854 60.3582L41.5548 59.2792C41.5548 59.2792 42.2265 60.3071 42.2054 60.3289C42.1843 60.3508 41.8494 62.0133 41.8494 62.0133L41.8504 62.0126Z" fill="#6B7B3E"/>
<path d="M41.8498 62.0124C42.406 61.0844 43.0696 60.4838 43.0696 60.4838L41.5553 59.2783L41.8498 62.0124Z" fill="#4B5B19"/>
<path d="M51.7986 51.4579C51.7986 51.4579 50.4652 51.6986 50.1347 51.8787L49.8053 52.058L49.1366 50.7702C49.1366 50.7702 50.3346 50.5047 50.3483 50.5314C50.3609 50.5588 51.7993 51.459 51.7993 51.459L51.7986 51.4579Z" fill="#6B7B3E"/>
<path d="M51.7987 51.4578C51.1261 50.6092 50.7983 49.7777 50.7983 49.7777L49.1367 50.77L51.7987 51.4578Z" fill="#4B5B19"/>
<path d="M51.5983 47.0146C51.5983 47.0146 50.3936 47.6357 50.1311 47.9045L49.8679 48.1723L48.8516 47.1362C48.8516 47.1362 49.9196 46.5302 49.9394 46.5527C49.9603 46.5745 51.5977 47.0136 51.5977 47.0136L51.5983 47.0146Z" fill="#6B7B3E"/>
<path d="M51.5978 47.0145C50.7057 46.4009 50.1484 45.7017 50.1484 45.7017L48.8499 47.1368L51.5978 47.0145Z" fill="#4B5B19"/>
<path d="M51.6687 43.0864C51.6687 43.0864 50.4639 43.7075 50.2014 43.9763L49.9382 44.2441L48.9219 43.208C48.9219 43.208 49.9899 42.602 50.0097 42.6245C50.0306 42.6463 51.669 43.0847 51.669 43.0847L51.6687 43.0864Z" fill="#6B7B3E"/>
<path d="M51.6681 43.0863C50.776 42.4727 50.2187 41.7735 50.2187 41.7735L48.9203 43.2086L51.6681 43.0863Z" fill="#4B5B19"/>
<path d="M51.6648 40.5263C51.6648 40.5263 50.46 41.1474 50.1975 41.4162L49.9343 41.684L48.918 40.6479C48.918 40.6479 49.986 40.0419 50.0059 40.0644C50.0267 40.0862 51.6641 40.5253 51.6641 40.5253L51.6648 40.5263Z" fill="#6B7B3E"/>
<path d="M51.6642 40.5262C50.7721 39.9126 50.2148 39.2135 50.2148 39.2135L48.9164 40.6486L51.6642 40.5262Z" fill="#4B5B19"/>
<path d="M52.1648 42.06C52.1648 42.06 50.96 42.6811 50.6975 42.9499L50.4343 43.2178L49.418 42.1816C49.418 42.1816 50.486 41.5756 50.5058 41.5981C50.5257 41.6206 52.1641 42.059 52.1641 42.059L52.1648 42.06Z" fill="#6B7B3E"/>
<path d="M52.1642 42.0599C51.2721 41.4463 50.7148 40.7472 50.7148 40.7472L49.4164 42.1823L52.1642 42.0599Z" fill="#4B5B19"/>
<path d="M51.7175 38.5537C51.7175 38.5537 50.5127 39.1748 50.2502 39.4436L49.987 39.7114L48.9707 38.6753C48.9707 38.6753 50.0387 38.0693 50.0586 38.0918C50.0794 38.1136 51.7168 38.5526 51.7168 38.5526L51.7175 38.5537Z" fill="#6B7B3E"/>
<path d="M51.7169 38.5536C50.8248 37.94 50.2675 37.2408 50.2675 37.2408L48.9691 38.6759L51.7169 38.5536Z" fill="#4B5B19"/>
<path d="M51.5945 36.5732C51.5945 36.5732 50.3897 37.1943 50.1272 37.4631L49.864 37.7309L48.8477 36.6948C48.8477 36.6948 49.9157 36.0888 49.9356 36.1113C49.9554 36.1338 51.5938 36.5721 51.5938 36.5721L51.5945 36.5732Z" fill="#6B7B3E"/>
<path d="M51.5939 36.5731C50.7018 35.9595 50.1445 35.2603 50.1445 35.2603L48.846 36.6955L51.5939 36.5731Z" fill="#4B5B19"/>
<path d="M50.0506 53.1586C50.0506 53.1586 48.7171 53.3993 48.3867 53.5793L48.0573 53.7587L47.3886 52.4708C47.3886 52.4708 48.5866 52.2054 48.6002 52.2321C48.6129 52.2595 50.0513 53.1596 50.0513 53.1596L50.0506 53.1586Z" fill="#6B7B3E"/>
<path d="M50.0507 53.1585C49.3788 52.3109 49.0503 51.4784 49.0503 51.4784L47.3887 52.4707L50.0507 53.1585Z" fill="#4B5B19"/>
<path d="M47.0452 57.7423C47.0452 57.7423 45.7785 57.2594 45.4035 57.2418L45.0284 57.2242L45.1226 55.7767C45.1226 55.7767 46.2863 56.1678 46.2831 56.1984C46.28 56.2291 47.0462 57.7416 47.0462 57.7416L47.0452 57.7423Z" fill="#6B7B3E"/>
<path d="M47.0456 57.7425C46.9083 56.6687 47.0578 55.7868 47.0578 55.7868L45.123 55.7769L47.0466 57.7418L47.0456 57.7425Z" fill="#4B5B19"/>
<path d="M44.3558 60.3497C44.3558 60.3497 43.0891 59.8668 42.714 59.8492L42.3389 59.8316L42.4332 58.3841C42.4332 58.3841 43.5968 58.7752 43.5937 58.8059C43.5906 58.8365 44.3568 60.349 44.3568 60.349L44.3558 60.3497Z" fill="#6B7B3E"/>
<path d="M44.3562 60.3499C44.2189 59.2761 44.3683 58.3942 44.3683 58.3942L42.4336 58.3843L44.3562 60.3499Z" fill="#4B5B19"/>
<path d="M49.1326 54.955C49.1326 54.955 47.7992 55.1957 47.4687 55.3757L47.1393 55.5551L46.4706 54.2672C46.4706 54.2672 47.6686 54.0018 47.6823 54.0285C47.6949 54.0559 49.1333 54.956 49.1333 54.956L49.1326 54.955Z" fill="#6B7B3E"/>
<path d="M49.1327 54.9549C48.4608 54.1073 48.1323 53.2748 48.1323 53.2748L46.4707 54.2671L49.1327 54.9549Z" fill="#4B5B19"/>
<path d="M48.2791 56.3569C48.2791 56.3569 46.9456 56.5975 46.6152 56.7776L46.2858 56.957L45.6171 55.6691C45.6171 55.6691 46.8161 55.4029 46.8288 55.4303C46.8414 55.4577 48.2798 56.3579 48.2798 56.3579L48.2791 56.3569Z" fill="#6B7B3E"/>
<path d="M48.2799 56.3568C47.608 55.5092 47.2795 54.6767 47.2795 54.6767L45.6172 55.668L48.2792 56.3558L48.2799 56.3568Z" fill="#4B5B19"/>
<path d="M50.3089 59.369C50.3089 59.369 49.1123 58.7334 48.7415 58.6693L48.3715 58.6063L48.6445 57.181C48.6445 57.181 49.7501 57.7138 49.7435 57.7438C49.7369 57.7737 50.3096 59.3701 50.3096 59.3701L50.3089 59.369Z" fill="#6B7B3E"/>
<path d="M50.3097 59.3692C50.3061 58.2869 50.5641 57.43 50.5641 57.43L48.6445 57.1802L50.3097 59.3692Z" fill="#4B5B19"/>
<path d="M51.9034 58.137C51.9034 58.137 50.5788 57.851 50.2053 57.8908L49.8319 57.9306L49.7053 56.485C49.7053 56.485 50.9146 56.6965 50.916 56.7271C50.9173 56.7577 51.9034 58.137 51.9034 58.137Z" fill="#6B7B3E"/>
<path d="M51.9031 58.1368C51.6052 57.096 51.6193 56.2026 51.6193 56.2026L49.7051 56.4849L51.9031 58.1368Z" fill="#4B5B19"/>
<path d="M52.0792 56.5471C52.0792 56.5471 50.7546 56.2611 50.3811 56.301L50.0077 56.3408L49.8811 54.8951C49.8811 54.8951 51.0904 55.1066 51.0918 55.1372C51.0931 55.1678 52.0781 56.5478 52.0781 56.5478L52.0792 56.5471Z" fill="#6B7B3E"/>
<path d="M52.0789 56.547C51.781 55.5061 51.7951 54.6128 51.7951 54.6128L49.8809 54.895L52.0789 56.547Z" fill="#4B5B19"/>
<path d="M54.0772 53.3982C54.0772 53.3982 52.7526 53.1122 52.3792 53.152L52.0057 53.1919L51.8792 51.7462C51.8792 51.7462 53.0885 51.9577 53.0898 51.9883C53.0911 52.0189 54.0772 53.3982 54.0772 53.3982Z" fill="#6B7B3E"/>
<path d="M54.0769 53.3981C53.779 52.3572 53.7932 51.4639 53.7932 51.4639L51.8789 51.7461L54.0769 53.3981Z" fill="#4B5B19"/>
<path d="M52.9795 55.3621C52.9795 55.3621 51.655 55.076 51.2815 55.1159L50.9081 55.1557L50.7815 53.7101C50.7815 53.7101 51.9908 53.9216 51.9922 53.9522C51.9935 53.9828 52.9795 55.3621 52.9795 55.3621Z" fill="#6B7B3E"/>
<path d="M52.9793 55.3619C52.6814 54.3211 52.6955 53.4277 52.6955 53.4277L50.7812 53.71L52.9793 55.3619Z" fill="#4B5B19"/>
<path d="M50.9991 54.9133C50.9991 54.9133 49.6745 54.6273 49.3011 54.6671L48.9276 54.707L48.801 53.2613C48.801 53.2613 50.0104 53.4728 50.0117 53.5034C50.013 53.534 50.9991 54.9133 50.9991 54.9133Z" fill="#6B7B3E"/>
<path d="M50.9988 54.9132C50.7009 53.8723 50.715 52.979 50.715 52.979L48.8008 53.2612L50.9988 54.9132Z" fill="#4B5B19"/>
<path d="M50.2901 56.6863C50.2901 56.6863 48.9655 56.4002 48.5921 56.4401L48.2186 56.4799L48.0921 55.0343C48.0921 55.0343 49.3014 55.2458 49.3027 55.2764C49.3041 55.307 50.2908 56.6873 50.2908 56.6873L50.2901 56.6863Z" fill="#6B7B3E"/>
<path d="M50.2899 56.6861C49.9919 55.6453 50.0061 54.752 50.0061 54.752L48.0918 55.0342L50.2899 56.6861Z" fill="#4B5B19"/>
<path d="M49.3624 58.1863C49.3624 58.1863 48.0378 57.9003 47.6643 57.9401L47.2909 57.98L47.1643 56.5343C47.1643 56.5343 48.3737 56.7458 48.375 56.7764C48.3763 56.807 49.3624 58.1863 49.3624 58.1863Z" fill="#6B7B3E"/>
<path d="M49.3621 58.1861C49.0642 57.1453 49.0783 56.252 49.0783 56.252L47.1641 56.5342L49.3621 58.1861Z" fill="#4B5B19"/>
<path d="M47.8049 59.8506C47.8049 59.8506 46.5765 59.2785 46.2029 59.2344L45.8293 59.1904L46.0261 57.7525C46.0261 57.7525 47.1589 58.2261 47.1534 58.2554C47.1485 58.2857 47.8042 59.8496 47.8042 59.8496L47.8049 59.8506Z" fill="#6B7B3E"/>
<path d="M47.8054 59.8505C47.7461 58.7701 47.9572 57.9017 47.9572 57.9017L46.0273 57.7534L47.8044 59.8512L47.8054 59.8505Z" fill="#4B5B19"/>
<path d="M46.4787 60.6114C46.4787 60.6114 45.2503 60.0393 44.8767 59.9952L44.5031 59.9511L44.7 58.5132C44.7 58.5132 45.8328 58.9869 45.8272 59.0162C45.8224 59.0465 46.478 60.6103 46.478 60.6103L46.4787 60.6114Z" fill="#6B7B3E"/>
<path d="M46.4793 60.6113C46.4193 59.5298 46.6311 58.6624 46.6311 58.6624L44.7012 58.5142L46.4782 60.612L46.4793 60.6113Z" fill="#4B5B19"/>
<path d="M35.8165 28.2605C35.8165 28.2605 36.9788 28.7246 37.3246 28.7455L37.6705 28.7665L37.5628 30.1017C37.5628 30.1017 36.4949 29.7234 36.4973 29.6962C36.5008 29.6683 35.8154 28.2612 35.8154 28.2612L35.8165 28.2605Z" fill="#6B7B3E"/>
<path d="M35.8171 28.2607C35.9288 29.2529 35.7784 30.065 35.7784 30.065L37.5645 30.1012L35.8182 28.26L35.8171 28.2607Z" fill="#4B5B19"/>
<path d="M31.6934 33.0015C31.6934 33.0015 32.9434 33.0547 33.2774 32.9592L33.6104 32.8644L33.9521 34.159C33.9521 34.159 32.8192 34.1565 32.8127 34.1294C32.8063 34.1023 31.6934 33.0015 31.6934 33.0015Z" fill="#6B7B3E"/>
<path d="M31.6924 33.0015C32.1268 33.9013 32.2533 34.7169 32.2533 34.7169L33.9502 34.1596L31.6924 33.0015Z" fill="#4B5B19"/>
<path d="M32.7637 31.3027C32.7637 31.3027 34.0137 31.3559 34.3477 31.2604L34.6808 31.1656L35.0225 32.4602C35.0225 32.4602 33.8895 32.4578 33.8831 32.4307C33.8766 32.4036 32.7637 31.3027 32.7637 31.3027Z" fill="#6B7B3E"/>
<path d="M32.7627 31.3027C33.1971 32.2026 33.3236 33.0182 33.3236 33.0182L35.0205 32.4609L32.7627 31.3027Z" fill="#4B5B19"/>
<path d="M34.1699 29.6665C34.1699 29.6665 35.3961 29.916 35.7403 29.8751L36.0845 29.8341L36.2182 31.1669C36.2182 31.1669 35.1004 30.9862 35.0977 30.958C35.0967 30.9301 34.1706 29.6675 34.1706 29.6675L34.1699 29.6665Z" fill="#6B7B3E"/>
<path d="M34.1705 29.6663C34.4576 30.623 34.4545 31.4488 34.4545 31.4488L36.2182 31.1657L34.1705 29.6663Z" fill="#4B5B19"/>
<path d="M28.7539 40.8359C28.7539 40.8359 29.9364 40.4266 30.2118 40.2164L30.4873 40.0063L31.2795 41.0855C31.2795 41.0855 30.2239 41.4985 30.2086 41.4759C30.1932 41.4534 28.7539 40.8359 28.7539 40.8359Z" fill="#6B7B3E"/>
<path d="M28.7539 40.8359C29.4874 41.5141 29.9048 42.226 29.9048 42.226L31.2795 41.0855L28.7539 40.8359Z" fill="#4B5B19"/>
<path d="M29.1094 39.0649C29.1094 39.0649 30.2919 38.6556 30.5673 38.4454L30.8428 38.2353L31.635 39.3145C31.635 39.3145 30.5794 39.7275 30.5641 39.7049C30.5487 39.6824 29.1094 39.0649 29.1094 39.0649Z" fill="#6B7B3E"/>
<path d="M29.1094 39.0649C29.8429 39.7431 30.2603 40.455 30.2603 40.455L31.635 39.3145L29.1094 39.0649Z" fill="#4B5B19"/>
<path d="M29.6944 36.9773C29.6944 36.9773 30.9244 36.7456 31.2274 36.5782L31.5305 36.4108L32.1555 37.5949C32.1555 37.5949 31.0516 37.8487 31.0393 37.8241C31.0271 37.7994 29.6934 36.978 29.6934 36.978L29.6944 36.9773Z" fill="#6B7B3E"/>
<path d="M29.6952 36.9773C30.3213 37.7555 30.6296 38.5208 30.6296 38.5208L32.1573 37.5941L29.6952 36.9773Z" fill="#4B5B19"/>
<path d="M30.623 34.9971C30.623 34.9971 31.8686 34.8808 32.1868 34.7421L32.5049 34.6034L33.0173 35.8402C33.0173 35.8402 31.8938 35.9904 31.8846 35.9637C31.8744 35.9376 30.623 34.9971 30.623 34.9971Z" fill="#6B7B3E"/>
<path d="M30.6235 34.997C31.1749 35.8307 31.4115 36.6208 31.4115 36.6208L33.0178 35.8402L30.6235 34.997Z" fill="#4B5B19"/>
<path d="M28.5352 42.7607C28.5352 42.7607 29.7176 42.3514 29.9931 42.1412L30.2686 41.9311L31.0607 43.0103C31.0607 43.0103 30.0052 43.4233 29.9898 43.4007C29.9745 43.3782 28.5352 42.7607 28.5352 42.7607Z" fill="#6B7B3E"/>
<path d="M28.5352 42.7607C29.2686 43.4389 29.686 44.1508 29.686 44.1508L31.0607 43.0103L28.5352 42.7607Z" fill="#4B5B19"/>
<path d="M28.2403 44.8655C28.2403 44.8655 29.2957 44.1946 29.5162 43.9258L29.7357 43.6578L30.7555 44.525C30.7555 44.525 29.8237 45.1702 29.8032 45.1511C29.7828 45.1321 28.2396 44.8644 28.2396 44.8644L28.2403 44.8655Z" fill="#6B7B3E"/>
<path d="M28.2402 44.8652C29.1101 45.3559 29.6815 45.9525 29.6815 45.9525L30.7562 44.5258L28.2409 44.8663L28.2402 44.8652Z" fill="#4B5B19"/>
<path d="M28.4805 47.3099C28.4805 47.3099 29.3325 46.3934 29.4769 46.079L29.6224 45.7639L30.8285 46.3451C30.8285 46.3451 30.0907 47.2047 30.0655 47.1919C30.0403 47.1791 28.4805 47.3099 28.4805 47.3099Z" fill="#6B7B3E"/>
<path d="M28.4805 47.3101C29.446 47.5646 30.1492 47.9978 30.1492 47.9978L30.8285 46.3453L28.4805 47.3101Z" fill="#4B5B19"/>
<path d="M28.9801 48.736C28.9801 48.736 29.9559 47.9527 30.1442 47.6609L30.3332 47.3701L31.443 48.1205C31.443 48.1205 30.5889 48.8644 30.566 48.8484C30.5432 48.8325 28.9801 48.736 28.9801 48.736Z" fill="#6B7B3E"/>
<path d="M28.9805 48.7358C29.8996 49.127 30.5325 49.6576 30.5325 49.6576L31.4434 48.1204L28.9805 48.7358Z" fill="#4B5B19"/>
<path d="M29.5027 50.8834C29.5027 50.8834 30.2708 49.8966 30.3873 49.5697L30.5037 49.2428L31.7562 49.716C31.7562 49.716 31.0968 50.6377 31.0712 50.6266C31.0457 50.6156 29.5027 50.8834 29.5027 50.8834Z" fill="#6B7B3E"/>
<path d="M29.502 50.8833C30.4866 51.0513 31.2249 51.4216 31.2249 51.4216L31.7554 49.7159L29.502 50.8833Z" fill="#4B5B19"/>
<path d="M30.3141 52.9285C30.3141 52.9285 30.8079 51.7789 30.8378 51.433L30.8677 51.087L32.1991 51.2289C32.1991 51.2289 31.7942 52.2863 31.7663 52.2828C31.7384 52.2793 30.3134 52.9274 30.3134 52.9274L30.3141 52.9285Z" fill="#6B7B3E"/>
<path d="M30.3145 52.9284C31.3096 52.8432 32.1172 53.0132 32.1172 53.0132L32.1994 51.2288L30.3138 52.9274L30.3145 52.9284Z" fill="#4B5B19"/>
<path d="M31.0593 54.4918C31.0593 54.4918 31.7695 53.4619 31.8666 53.1287L31.9637 52.7954L33.2416 53.1957C33.2416 53.1957 32.6369 54.1538 32.6093 54.1441C32.5834 54.1347 31.0586 54.4908 31.0586 54.4908L31.0593 54.4918Z" fill="#6B7B3E"/>
<path d="M31.0586 54.4917C32.0513 54.6032 32.8094 54.9299 32.8094 54.9299L33.2417 53.1967L31.0586 54.4917Z" fill="#4B5B19"/>
<path d="M32.0674 56.3621C32.0674 56.3621 32.5197 55.1958 32.5389 54.8496L32.5565 54.5031L33.8922 54.5984C33.8922 54.5984 33.5239 55.67 33.4967 55.6675C33.4688 55.664 32.0681 56.3631 32.0681 56.3631L32.0674 56.3621Z" fill="#6B7B3E"/>
<path d="M32.0665 56.362C33.0585 56.2413 33.8713 56.3838 33.8713 56.3838L33.8913 54.5983L32.0665 56.362Z" fill="#4B5B19"/>
<path d="M33.7122 58.1865C33.7122 58.1865 33.856 56.9439 33.7855 56.6048L33.7151 56.2656L35.0316 56.02C35.0316 56.02 34.9459 57.1496 34.9191 57.1544C34.8916 57.1581 33.7119 58.1883 33.7119 58.1883L33.7122 58.1865Z" fill="#6B7B3E"/>
<path d="M33.7117 58.1863C34.6408 57.819 35.4631 57.751 35.4631 57.751L35.0314 56.0181L33.7117 58.1863Z" fill="#4B5B19"/>
<path d="M34.9599 59.0399C34.9599 59.0399 35.2811 57.8309 35.2611 57.4844L35.2412 57.1379L36.5792 57.0846C36.5792 57.0846 36.332 58.1908 36.3034 58.1907C36.2749 58.1907 34.9599 59.0399 34.9599 59.0399Z" fill="#6B7B3E"/>
<path d="M34.959 59.0401C35.9307 58.8103 36.7553 58.8623 36.7553 58.8623L36.5784 57.0849L34.959 59.0401Z" fill="#4B5B19"/>
<path d="M36.6519 60.4601C36.6519 60.4601 36.6855 59.2099 36.5862 58.8769L36.4859 58.5446L37.7751 58.1841C37.7751 58.1841 37.7896 59.3175 37.7624 59.324C37.7353 59.3304 36.6508 60.4608 36.6508 60.4608L36.6519 60.4601Z" fill="#6B7B3E"/>
<path d="M36.6522 60.4602C37.5447 60.0128 38.3584 59.8726 38.3584 59.8726L37.7755 58.1842L36.6522 60.4602Z" fill="#4B5B19"/>
<path d="M38.7115 61.5214C38.7115 61.5214 38.4277 60.3029 38.2472 60.0072L38.0668 59.7115L39.2229 59.0365C39.2229 59.0365 39.5234 60.1296 39.4988 60.1419C39.4738 60.1559 38.7105 61.5221 38.7105 61.5221L38.7115 61.5214Z" fill="#6B7B3E"/>
<path d="M38.7119 61.5212C39.4633 60.8623 40.2142 60.5218 40.2142 60.5218L39.2233 59.0363L38.7109 61.5219L38.7119 61.5212Z" fill="#4B5B19"/>
<path d="M37.1153 28.3675C37.1153 28.3675 38.2776 28.8315 38.6235 28.8525L38.9693 28.8734L38.8616 30.2086C38.8616 30.2086 37.7937 29.8303 37.7962 29.8031C37.7997 29.7752 37.1143 28.3682 37.1143 28.3682L37.1153 28.3675Z" fill="#6B7B3E"/>
<path d="M37.116 28.3676C37.2267 29.3605 37.0772 30.1719 37.0772 30.1719L38.8633 30.2081L37.117 28.3669L37.116 28.3676Z" fill="#4B5B19"/>
<path d="M32.9922 33.1089C32.9922 33.1089 34.2422 33.1621 34.5763 33.0666L34.9093 32.9718L35.251 34.2664C35.251 34.2664 34.118 34.2639 34.1116 34.2368C34.1051 34.2097 32.9922 33.1089 32.9922 33.1089Z" fill="#6B7B3E"/>
<path d="M32.9912 33.1089C33.4257 34.0087 33.5521 34.8243 33.5521 34.8243L35.249 34.2671L32.9912 33.1089Z" fill="#4B5B19"/>
<path d="M34.0605 31.4102C34.0605 31.4102 35.3106 31.4634 35.6446 31.3679L35.9776 31.2731L36.3193 32.5676C36.3193 32.5676 35.1864 32.5652 35.18 32.5381C35.1735 32.511 34.0605 31.4102 34.0605 31.4102Z" fill="#6B7B3E"/>
<path d="M34.0615 31.4102C34.4959 32.31 34.6224 33.1256 34.6224 33.1256L36.3193 32.5683L34.0615 31.4102Z" fill="#4B5B19"/>
<path d="M35.4688 29.7744C35.4688 29.7744 36.6949 30.0239 37.0392 29.983L37.3834 29.9421L37.5171 31.2748C37.5171 31.2748 36.3992 31.0941 36.3965 31.0659C36.3938 31.0377 35.4694 29.7754 35.4694 29.7754L35.4688 29.7744Z" fill="#6B7B3E"/>
<path d="M35.4694 29.7742C35.7565 30.7309 35.7534 31.5567 35.7534 31.5567L37.517 31.2736L35.4694 29.7742Z" fill="#4B5B19"/>
<path d="M30.0527 40.9434C30.0527 40.9434 31.2352 40.534 31.5107 40.3238L31.7861 40.1137L32.5783 41.1929C32.5783 41.1929 31.5228 41.6059 31.5074 41.5833C31.4921 41.5608 30.0527 40.9434 30.0527 40.9434Z" fill="#6B7B3E"/>
<path d="M30.0527 40.9434C30.7862 41.6215 31.2037 42.3334 31.2037 42.3334L32.5783 41.1929L30.0527 40.9434Z" fill="#4B5B19"/>
<path d="M30.4082 39.1724C30.4082 39.1724 31.5907 38.763 31.8661 38.5528L32.1416 38.3427L32.9338 39.422C32.9338 39.422 31.8782 39.8349 31.8629 39.8123C31.8475 39.7898 30.4082 39.1724 30.4082 39.1724Z" fill="#6B7B3E"/>
<path d="M30.4082 39.1724C31.1417 39.8505 31.5591 40.5624 31.5591 40.5624L32.9338 39.422L30.4082 39.1724Z" fill="#4B5B19"/>
<path d="M30.9932 37.0843C30.9932 37.0843 32.2222 36.8532 32.5263 36.6851L32.8293 36.5177L33.4544 37.7018C33.4544 37.7018 32.3505 37.9556 32.3382 37.931C32.3259 37.9064 30.9922 37.085 30.9922 37.085L30.9932 37.0843Z" fill="#6B7B3E"/>
<path d="M30.994 37.0842C31.6202 37.8625 31.9284 38.6277 31.9284 38.6277L33.4562 37.7011L30.994 37.0842Z" fill="#4B5B19"/>
<path d="M31.9238 35.105C31.9238 35.105 33.1694 34.9887 33.4875 34.85L33.8057 34.7113L34.3181 35.9481C34.3181 35.9481 33.1946 36.0983 33.1854 36.0716C33.1751 36.0455 31.9249 35.1043 31.9249 35.1043L31.9238 35.105Z" fill="#6B7B3E"/>
<path d="M31.9234 35.1052C32.4748 35.9389 32.7103 36.7296 32.7103 36.7296L34.3166 35.9491L31.9224 35.1059L31.9234 35.1052Z" fill="#4B5B19"/>
<path d="M29.834 42.8687C29.834 42.8687 31.0165 42.4593 31.2919 42.2491L31.5674 42.039L32.3596 43.1183C32.3596 43.1183 31.304 43.5312 31.2887 43.5086C31.2733 43.4861 29.834 42.8687 29.834 42.8687Z" fill="#6B7B3E"/>
<path d="M29.834 42.8687C30.5675 43.5468 30.9849 44.2587 30.9849 44.2587L32.3596 43.1183L29.834 42.8687Z" fill="#4B5B19"/>
<path d="M29.5391 44.9734C29.5391 44.9734 30.5945 44.3025 30.815 44.0337L31.0346 43.7657L32.0543 44.6329C32.0543 44.6329 31.1225 45.2781 31.1021 45.259C31.0816 45.24 29.5384 44.9723 29.5384 44.9723L29.5391 44.9734Z" fill="#6B7B3E"/>
<path d="M29.5391 44.9731C30.4089 45.4639 30.9803 46.0604 30.9803 46.0604L32.055 44.6337L29.5398 44.9742L29.5391 44.9731Z" fill="#4B5B19"/>
<path d="M30.6036 46.0144C30.6036 46.0144 31.659 45.3435 31.8795 45.0748L32.099 44.8067L33.1188 45.6739C33.1188 45.6739 32.187 46.3191 32.1665 46.3001C32.146 46.281 30.6029 46.0134 30.6029 46.0134L30.6036 46.0144Z" fill="#6B7B3E"/>
<path d="M30.6035 46.0142C31.4744 46.5042 32.0448 47.1014 32.0448 47.1014L33.1194 45.6747L30.6042 46.0152L30.6035 46.0142Z" fill="#4B5B19"/>
<path d="M31.086 43.9817C31.086 43.9817 32.1414 43.3108 32.3619 43.042L32.5814 42.774L33.6012 43.6412C33.6012 43.6412 32.6694 44.2864 32.6489 44.2673C32.6285 44.2483 31.0853 43.9806 31.0853 43.9806L31.086 43.9817Z" fill="#6B7B3E"/>
<path d="M31.0859 43.9814C31.9568 44.4715 32.5272 45.0687 32.5272 45.0687L33.6018 43.642L31.0866 43.9825L31.0859 43.9814Z" fill="#4B5B19"/>
<path d="M31.377 41.8625C31.377 41.8625 32.4324 41.1917 32.6529 40.9229L32.8724 40.6549L33.8929 41.5231C33.8929 41.5231 32.9611 42.1683 32.9406 42.1493C32.9201 42.1302 31.377 41.8625 31.377 41.8625Z" fill="#6B7B3E"/>
<path d="M31.377 41.8623C32.2479 42.3523 32.8182 42.9495 32.8182 42.9495L33.8929 41.5228L31.3777 41.8633L31.377 41.8623Z" fill="#4B5B19"/>
<path d="M32.209 38.7754C32.209 38.7754 33.4239 38.4775 33.7185 38.2933L34.0121 38.1098L34.7011 39.2578C34.7011 39.2578 33.6126 39.5717 33.5986 39.5467C33.5846 39.5218 32.209 38.7754 32.209 38.7754Z" fill="#6B7B3E"/>
<path d="M32.209 38.7754C32.8767 39.5178 33.2264 40.2668 33.2264 40.2668L34.7011 39.2578L32.209 38.7754Z" fill="#4B5B19"/>
<path d="M32.6836 36.522C32.6836 36.522 33.8985 36.224 34.1931 36.0399L34.4867 35.8564L35.1757 37.0044C35.1757 37.0044 34.0872 37.3183 34.0732 37.2933C34.0592 37.2683 32.6836 36.522 32.6836 36.522Z" fill="#6B7B3E"/>
<path d="M32.6836 36.522C33.3514 37.2644 33.701 38.0134 33.701 38.0134L35.1757 37.0044L32.6836 36.522Z" fill="#4B5B19"/>
<path d="M29.7812 47.4173C29.7812 47.4173 30.6333 46.5008 30.7777 46.1864L30.9232 45.8713L32.1293 46.4525C32.1293 46.4525 31.3915 47.3121 31.3663 47.2993C31.3411 47.2865 29.7812 47.4173 29.7812 47.4173Z" fill="#6B7B3E"/>
<path d="M29.7812 47.4175C30.7468 47.672 31.45 48.1052 31.45 48.1052L32.1293 46.4527L29.7812 47.4175Z" fill="#4B5B19"/>
<path d="M30.2809 48.8434C30.2809 48.8434 31.2567 48.0602 31.445 47.7684L31.634 47.4776L32.7438 48.2279C32.7438 48.2279 31.8897 48.9718 31.8668 48.9558C31.844 48.9399 30.2809 48.8434 30.2809 48.8434Z" fill="#6B7B3E"/>
<path d="M30.2812 48.8433C31.2004 49.2344 31.8333 49.765 31.8333 49.765L32.7442 48.2278L30.2812 48.8433Z" fill="#4B5B19"/>
<path d="M30.8015 50.9903C30.8015 50.9903 31.5697 50.0035 31.6861 49.6766L31.8025 49.3498L33.055 49.8229C33.055 49.8229 32.3956 50.7447 32.3701 50.7336C32.3445 50.7225 30.8015 50.9903 30.8015 50.9903Z" fill="#6B7B3E"/>
<path d="M30.8008 50.9902C31.7854 51.1582 32.5238 51.5285 32.5238 51.5285L33.0543 49.8228L30.8008 50.9902Z" fill="#4B5B19"/>
<path d="M31.6149 53.0359C31.6149 53.0359 32.1087 51.8863 32.1386 51.5404L32.1685 51.1944L33.4999 51.3363C33.4999 51.3363 33.095 52.3938 33.0671 52.3903C33.0392 52.3868 31.6142 53.0349 31.6142 53.0349L31.6149 53.0359Z" fill="#6B7B3E"/>
<path d="M31.6152 53.0358C32.6104 52.9506 33.418 53.1207 33.418 53.1207L33.5002 51.3362L31.6145 53.0348L31.6152 53.0358Z" fill="#4B5B19"/>
<path d="M32.3581 54.5982C32.3581 54.5982 33.0684 53.5683 33.1655 53.2351L33.2626 52.9019L34.5405 53.3022C34.5405 53.3022 33.9358 54.2602 33.9082 54.2505C33.8823 54.2412 32.3574 54.5972 32.3574 54.5972L32.3581 54.5982Z" fill="#6B7B3E"/>
<path d="M32.3574 54.5981C33.3501 54.7096 34.1083 55.0364 34.1083 55.0364L34.5405 53.3031L32.3574 54.5981Z" fill="#4B5B19"/>
<path d="M33.3682 56.4685C33.3682 56.4685 33.8205 55.3022 33.8397 54.956L33.8572 54.6095L35.193 54.7049C35.193 54.7049 34.8247 55.7764 34.7975 55.774C34.7696 55.7705 33.3689 56.4695 33.3689 56.4695L33.3682 56.4685Z" fill="#6B7B3E"/>
<path d="M33.3672 56.4684C34.3593 56.3478 35.1721 56.4903 35.1721 56.4903L35.1921 54.7048L33.3672 56.4684Z" fill="#4B5B19"/>
<path d="M35.0111 58.2944C35.0111 58.2944 35.1548 57.0517 35.0844 56.7126L35.0139 56.3735L36.3304 56.1279C36.3304 56.1279 36.2447 57.2576 36.2179 57.2623C36.1905 57.266 35.0107 58.2962 35.0107 58.2962L35.0111 58.2944Z" fill="#6B7B3E"/>
<path d="M35.0105 58.2942C35.9396 57.9269 36.7619 57.8589 36.7619 57.8589L36.3302 56.126L35.0105 58.2942Z" fill="#4B5B19"/>
<path d="M36.2587 59.1478C36.2587 59.1478 36.5799 57.9388 36.5599 57.5923L36.54 57.2458L37.878 57.1926C37.878 57.1926 37.6308 58.2987 37.6022 58.2987C37.5737 58.2986 36.2587 59.1478 36.2587 59.1478Z" fill="#6B7B3E"/>
<path d="M36.2578 59.148C37.2296 58.9182 38.0541 58.9702 38.0541 58.9702L37.8772 57.1928L36.2578 59.148Z" fill="#4B5B19"/>
<path d="M37.9507 60.5675C37.9507 60.5675 37.9843 59.3173 37.885 58.9843L37.7847 58.6521L39.074 58.2915C39.074 58.2915 39.0884 59.4249 39.0613 59.4314C39.0342 59.4379 37.9497 60.5682 37.9497 60.5682L37.9507 60.5675Z" fill="#6B7B3E"/>
<path d="M37.951 60.5677C38.8435 60.1202 39.6573 59.98 39.6573 59.98L39.0743 58.2916L37.951 60.5677Z" fill="#4B5B19"/>
<path d="M40.0123 61.6293C40.0123 61.6293 39.7284 60.4108 39.548 60.1151L39.3676 59.8194L40.5237 59.1444C40.5237 59.1444 40.8242 60.2375 40.7996 60.2498C40.7746 60.2638 40.0113 61.63 40.0113 61.63L40.0123 61.6293Z" fill="#6B7B3E"/>
<path d="M40.0127 61.6291C40.7641 60.9702 41.515 60.6298 41.515 60.6298L40.5241 59.1442L40.0117 61.6298L40.0127 61.6291Z" fill="#4B5B19"/>
<path d="M31.6232 47.6539C31.6232 47.6539 32.702 47.0196 32.9298 46.7594L33.1587 46.4984L34.1486 47.401C34.1486 47.401 33.1962 48.0138 33.175 47.9937C33.1555 47.974 31.6225 47.6529 31.6225 47.6529L31.6232 47.6539Z" fill="#6B7B3E"/>
<path d="M31.623 47.6538C32.4757 48.1743 33.0256 48.7899 33.0256 48.7899L34.1484 47.4009L31.623 47.6538Z" fill="#4B5B19"/>
<path d="M31.6037 46.4571C31.6037 46.4571 32.6825 45.8228 32.9103 45.5626L33.1392 45.3017L34.1291 46.2043C34.1291 46.2043 33.1766 46.817 33.1555 46.7969C33.136 46.7772 31.603 46.4561 31.603 46.4561L31.6037 46.4571Z" fill="#6B7B3E"/>
<path d="M31.6035 46.457C32.4562 46.9775 33.006 47.5931 33.006 47.5931L34.1289 46.2042L31.6035 46.457Z" fill="#4B5B19"/>
<path d="M31.8674 49.9933C31.8674 49.9933 32.9461 49.359 33.174 49.0987L33.4028 48.8378L34.3927 49.7404C34.3927 49.7404 33.4403 50.3531 33.4191 50.3331C33.3997 50.3133 31.8667 49.9922 31.8667 49.9922L31.8674 49.9933Z" fill="#6B7B3E"/>
<path d="M31.8672 49.9932C32.7198 50.5136 33.2697 51.1293 33.2697 51.1293L34.3925 49.7403L31.8672 49.9932Z" fill="#4B5B19"/>
<path d="M49.432 27.0996C49.432 27.0996 49.0405 28.3971 49.0487 28.7725L49.0586 29.1484L47.6076 29.157C47.6076 29.157 47.916 27.9687 47.9452 27.9698C47.9755 27.9702 49.4302 27.0993 49.4302 27.0993L49.432 27.0996Z" fill="#6B7B3E"/>
<path d="M49.4325 27.0998C48.3712 27.3126 47.4816 27.2269 47.4816 27.2269L47.6089 29.1582L49.4325 27.0998Z" fill="#4B5B19"/>
<path d="M51.0355 28.3238C51.0355 28.3238 50.644 29.6212 50.6522 29.9967L50.6621 30.3725L49.2112 30.3811C49.2112 30.3811 49.5195 29.1929 49.5498 29.1932C49.58 29.1936 51.0348 28.3227 51.0348 28.3227L51.0355 28.3238Z" fill="#6B7B3E"/>
<path d="M51.036 28.3239C49.9747 28.5367 49.0851 28.451 49.0851 28.451L49.2124 30.3823L51.036 28.3239Z" fill="#4B5B19"/>
<path d="M50.8551 30.3516C50.8551 30.3516 50.1582 31.5134 50.0752 31.8806L49.9932 32.247L48.5845 31.9013C48.5845 31.9013 49.1742 30.8244 49.2029 30.8334C49.2325 30.8417 50.8558 30.3526 50.8558 30.3526L50.8551 30.3516Z" fill="#6B7B3E"/>
<path d="M50.8558 30.3514C49.7754 30.2982 48.9328 29.9974 48.9328 29.9974L48.5835 31.9007L50.8565 30.3524L50.8558 30.3514Z" fill="#4B5B19"/>
<path d="M49.4026 29.6543C49.4026 29.6543 49.0017 30.9491 49.0089 31.3253L49.0161 31.7015L47.5651 31.7012C47.5651 31.7012 47.881 30.5153 47.9113 30.5156C47.9423 30.5171 49.4026 29.6543 49.4026 29.6543Z" fill="#6B7B3E"/>
<path d="M49.4018 29.6545C48.3391 29.8608 47.4498 29.769 47.4498 29.769L47.5643 31.7014L49.4008 29.6552L49.4018 29.6545Z" fill="#4B5B19"/>
<path d="M47.5699 27.1506C47.5699 27.1506 47.196 28.4541 47.2108 28.8281L47.2252 29.2039L45.7748 29.2332C45.7748 29.2332 46.0659 28.0416 46.0972 28.0413C46.1274 28.0417 47.571 27.1499 47.571 27.1499L47.5699 27.1506Z" fill="#6B7B3E"/>
<path d="M47.5692 27.1508C46.5111 27.3794 45.6203 27.3051 45.6203 27.3051L45.7747 29.2344L47.5699 27.1519L47.5692 27.1508Z" fill="#4B5B19"/>
<path d="M45.6419 24.712C45.6419 24.712 45.7661 26.0617 45.9167 26.4062L46.0674 26.7507L44.7271 27.3051C44.7271 27.3051 44.5661 26.0885 44.5931 26.0776C44.6219 26.067 45.6419 24.712 45.6419 24.712Z" fill="#6B7B3E"/>
<path d="M45.6428 24.7122C44.7397 25.3094 43.8821 25.5635 43.8821 25.5635L44.7263 27.305L45.6428 24.7122Z" fill="#4B5B19"/>
<path d="M43.2534 24.4204C43.2534 24.4204 44.1195 25.4628 44.4375 25.6632L44.756 25.8619L43.9633 27.077C43.9633 27.077 43.1422 26.1645 43.1594 26.1393C43.1767 26.114 43.2534 24.4204 43.2534 24.4204Z" fill="#6B7B3E"/>
<path d="M43.254 24.4203C42.8461 25.4228 42.2832 26.1183 42.2832 26.1183L43.9639 27.0769L43.254 24.4203Z" fill="#4B5B19"/>
<path d="M42.1635 25.709C42.1635 25.709 43.0296 26.7514 43.3477 26.9518L43.6661 27.1505L42.8734 28.3656C42.8734 28.3656 42.0523 27.4531 42.0703 27.4289C42.0876 27.4036 42.1642 25.71 42.1642 25.71L42.1635 25.709Z" fill="#6B7B3E"/>
<path d="M42.1641 25.7088C41.7563 26.7113 41.1933 27.4069 41.1933 27.4069L42.874 28.3655L42.1641 25.7088Z" fill="#4B5B19"/>
<path d="M45.9236 26.7503C45.9236 26.7503 45.6359 28.0746 45.6747 28.4487L45.7146 28.8222L44.2692 28.947C44.2692 28.947 44.4814 27.7387 44.5113 27.7364C44.5419 27.735 45.9226 26.751 45.9226 26.751L45.9236 26.7503Z" fill="#6B7B3E"/>
<path d="M45.9245 26.7507C44.884 27.0469 43.9899 27.0317 43.9899 27.0317L44.2711 28.9467L45.9255 26.75L45.9245 26.7507Z" fill="#4B5B19"/>
<path d="M43.8237 26.5117C43.8237 26.5117 42.6004 27.8236 42.1987 27.6921C41.7961 27.5613 41.6424 26.8753 41.6424 26.8753C41.6424 26.8753 41.2415 27.7185 40.7374 27.8969C40.2332 28.0752 40.0094 27.2885 40.0094 27.2885L39.932 27.6353C39.8546 27.982 39.6748 28.4736 39.3805 28.5811C39.0868 28.6896 38.6486 27.9934 38.6486 27.9934C38.6486 27.9934 38.8628 28.7132 38.3283 29.3338C37.7946 29.9554 36.9539 29.0187 36.9539 29.0187C36.9539 29.0187 37.1498 29.5485 37.2755 29.9775C37.3662 30.2847 37.3325 30.5898 37.1865 30.7807C37.2174 30.6367 37.228 30.5664 37.2097 30.5924C37.1748 30.6446 37.1424 30.7402 37.1075 30.863C37.0642 30.8985 37.015 30.9276 36.9594 30.9474C36.6311 31.06 35.7278 30.571 35.7278 30.571C35.7278 30.571 36.6496 32.1532 36.4222 32.5287C36.3784 32.5855 36.3332 32.6403 36.2849 32.6927C35.629 33.384 34.2568 32.8364 34.2568 32.8364C34.2568 32.8364 35.5824 34.3265 35.0612 34.764C34.54 35.2016 33.2508 35.3221 33.2508 35.3221C33.2508 35.3221 35.0363 36.3354 34.6462 36.9807C34.2568 37.627 33.0902 37.9386 33.0902 37.9386C33.0902 37.9386 33.1881 37.9634 33.7823 38.3313C34.3038 38.6542 34.439 39.0708 34.3159 39.5267C33.7262 40.1189 32.4989 39.8987 32.4989 39.8987C32.4989 39.8987 34.0967 41.0924 33.6752 41.6255C33.2537 42.1587 32.0138 42.5367 32.0138 42.5367C32.0138 42.5367 33.9661 43.1693 33.7142 43.881C33.4623 44.5927 32.3819 45.1321 32.3819 45.1321C32.3819 45.1321 32.4827 45.1369 33.1386 45.3773C33.4714 45.5002 33.683 45.6787 33.7983 45.8987C33.8017 45.9939 33.7986 46.0995 33.7822 46.2142C33.7029 46.7828 32.5151 46.6602 32.5151 46.6602C32.5151 46.6602 33.6306 47.3242 33.7062 47.9044C33.7818 48.4845 32.4159 48.7833 32.4159 48.7833C32.4159 48.7833 33.9426 49.3682 33.9194 49.8011C33.8952 50.2347 32.9221 51.2906 32.9727 51.3297C33.0233 51.3687 34.3952 51.2924 34.3952 51.2924L33.3856 52.6913L34.5366 52.4714L33.4774 54.5177L34.9643 54.216L34.3437 56.3312L36.031 55.8195L35.9474 56.9566L36.5589 56.8102C36.5589 56.8102 38.4451 59.7489 40.2377 59.8871C44.2179 60.193 48.6557 57.0892 49.9874 49.4409C50.4122 47.003 50.5446 42.1688 50.5401 41.1381C50.5276 38.4039 49.7351 34.6303 49.2668 33.4715C46.957 27.7591 44.4911 27.5244 44.0409 27.5925C43.5906 27.6607 43.8185 26.5107 43.8185 26.5107L43.8237 26.5117Z" fill="#FFE6C1"/>
<path d="M36.4209 36.2815C35.6325 38.6415 34.9893 44.0187 35.1272 46.1484C35.2643 48.277 35.2862 50.7077 36.0703 52.3235C36.8544 53.9394 38.4565 56.1129 38.69 57.0086C38.9235 57.9042 39.962 59.8209 41.5342 59.3426C43.107 58.8654 43.7391 58.5864 46.048 55.7248C48.3557 52.864 49.3812 50.3741 49.4648 47.8581C49.5491 45.3431 49.131 43.769 49.1003 42.1425C49.0542 39.6188 47.8817 32.3801 45.1552 29.3026C43.871 27.8534 39.6753 26.533 36.4196 36.2794L36.4209 36.2815Z" fill="#F4C895"/>
<path d="M36.1407 45.1359C36.1407 45.1359 36.1017 50.3297 36.5494 51.6256C36.997 52.9215 38.4319 54.6118 38.8678 55.4101C39.3036 56.2085 39.7243 57.1432 39.9086 57.7333C40.093 58.3234 40.8715 59.0939 41.7364 58.5753C42.6014 58.0566 43.9112 56.3737 44.9791 55.0011C46.0478 53.6295 47.627 51.6176 47.9035 50.7526C48.18 49.8876 48.1815 48.5242 48.3401 46.4597C48.4976 44.3959 48.3102 42.7442 48.3553 42.2619C48.5519 40.152 47.538 35.7385 47.538 35.7385L38.312 45.6539L36.1417 45.1352L36.1407 45.1359Z" fill="#E77F40"/>
<path d="M40.6346 57.6823C40.8953 57.9263 41.2915 57.9551 41.5859 57.753C42.5926 57.0657 42.4315 56.5604 45.6964 52.5915C47.218 50.7418 47.6336 47.9291 47.6251 46.388C47.6159 44.8459 48.385 41.3979 47.9079 37.3959C47.4308 33.3938 45.3793 29.9482 44.1951 29.256C43.2873 28.7251 39.0463 28.4812 37.3892 34.5176C35.7322 40.5539 35.8753 44.3124 36.0939 47.2587C36.3125 50.2051 36.615 51.7814 38.659 54.26C40.8909 56.9661 39.9937 57.0851 40.6336 57.683L40.6346 57.6823Z" fill="#FFCA00"/>
<path d="M40.0137 30.7754C39.6542 31.1838 39.3542 31.6507 39.0941 32.128C38.0231 34.0863 37.5086 36.3287 37.6217 38.5322C37.6918 39.9083 38.1543 41.0696 38.7566 42.2842C39.2863 43.3502 40.831 43.3317 41.7832 42.8331C42.7313 42.3374 43.3251 41.3612 43.7615 40.3918C45.087 37.4545 45.7635 33.7319 44.2563 30.7946C43.8978 30.0966 43.3841 29.5493 42.5427 29.5013C41.9687 29.4692 41.3949 29.671 40.9093 29.9868C40.5724 30.2058 40.2759 30.4753 40.012 30.7751L40.0137 30.7754Z" fill="#FFDF82"/>
<path d="M36.9994 50.7238C36.9973 50.7823 37.002 50.8421 37.0132 50.9005C37.0719 51.2266 37.2445 51.5726 37.3888 51.8704C37.5683 52.2418 37.7803 52.597 38.0199 52.9334C38.8924 54.1635 39.9058 55.017 40.1294 55.7769C40.353 56.5369 40.616 57.2489 41.0961 57.1079C41.5744 56.9666 42.1471 55.7964 42.9746 54.6941C43.8021 53.5918 45.241 51.962 45.7297 50.9194C46.2173 49.8776 46.5553 47.5589 46.65 46.5042C46.7447 45.4494 46.9355 43.6855 47.0072 42.804C47.0796 41.9235 46.2751 42.0574 45.4985 45.1265C44.7219 48.1956 43.6506 50.1646 42.3117 51.4742C41.6806 52.0917 40.7999 52.3781 39.9259 52.3042C39.5806 52.2753 39.2328 52.1942 38.92 52.0412C38.4953 51.8339 38.2633 51.4428 37.966 51.0856C37.7836 50.8663 37.5992 50.6484 37.4113 50.4343C37.3578 50.3732 37.2866 50.3062 37.2076 50.3225C37.1603 50.3322 37.1245 50.3701 37.0974 50.4095C37.0354 50.5013 37.0066 50.611 37.0022 50.7235L36.9994 50.7238Z" fill="#FFB41A"/>
<path d="M36.9518 47.4441C36.8192 47.3949 36.6736 47.4806 36.6516 47.6201C36.6205 47.8168 36.674 48.109 37.0993 48.4029C37.8411 48.9148 39.4518 49.3345 39.8549 49.0629C40.2591 48.7906 39.8644 48.5373 39.1723 48.4221C38.4809 48.308 37.9671 48.1659 37.6588 47.9468C37.3505 47.7277 37.1026 47.5004 36.9552 47.4448C36.9545 47.4438 36.9528 47.4434 36.9511 47.4431L36.9518 47.4441Z" fill="#FFB41A"/>
<path d="M37.2401 49.2569C37.3998 49.4077 38.6515 50.0119 38.9883 50.0525C39.3261 50.0925 39.197 50.2224 39.0561 50.2599C38.9151 50.2974 38.1569 50.0037 37.6413 49.6918C37.1257 49.3798 36.9204 49.2811 36.9717 49.2132C37.023 49.1453 37.2401 49.2569 37.2401 49.2569Z" fill="#FFB41A"/>
<path d="M43.0907 46.8609C43.8188 47.1016 45.4405 47.2137 46.1603 46.9004C46.8791 46.5878 47.1637 44.8801 46.6687 44.9442C46.1727 45.009 45.3191 45.9055 44.4178 45.9568C43.5166 46.0081 42.9576 46.0708 42.8025 46.3475C42.6474 46.6242 42.9513 46.8148 43.0907 46.8609Z" fill="#FFB41A"/>
<path d="M36.8031 42.9348C36.8031 42.9348 36.7914 45.0343 36.8952 45.7483C36.9989 46.4623 38.042 47.3811 38.9098 47.4592C39.7776 47.5372 41.4584 46.6368 41.7727 45.2944C42.0881 43.9513 41.0136 43.9046 39.7707 43.776C38.5278 43.6474 37.9232 41.8148 37.3883 41.807C36.8534 41.7993 36.8014 42.9345 36.8014 42.9345L36.8031 42.9348Z" fill="#FFDF82"/>
</svg>
